<?xml version="1.0" standalone="no"?>
<!DOCTYPE svg PUBLIC "-//W3C//DTD SVG 20010904//EN"
 "http://www.w3.org/TR/2001/REC-SVG-20010904/DTD/svg10.dtd">
<svg version="1.0" xmlns="http://www.w3.org/2000/svg"
 width="250.000000pt" height="250.000000pt" viewBox="0 0 250.000000 250.000000"
 preserveAspectRatio="xMidYMid meet">
<metadata>
Created by potrace 1.11, written by Peter Selinger 2001-2013
</metadata>
<g transform="translate(0.000000,250.000000) scale(0.100000,-0.100000)"
fill="#000000" stroke="none">
<path d="M0 1250 l0 -1250 1250 0 1250 0 0 1250 0 1250 -1250 0 -1250 0 0
-1250z m1425 878 c154 -17 304 -77 389 -156 55 -51 115 -143 146 -223 51 -132
62 -244 57 -549 -5 -280 -15 -354 -66 -473 -50 -116 -151 -221 -266 -277 -152
-75 -140 -74 -713 -78 l-513 -3 3 53 3 53 480 2 c535 3 568 6 694 69 118 59
204 172 248 325 16 56 18 104 18 379 0 275 -2 323 -18 380 -42 150 -125 264
-233 322 -99 53 -193 72 -364 72 -131 0 -167 -3 -235 -23 -106 -30 -168 -65
-235 -131 -128 -128 -160 -269 -160 -712 l0 -248 -51 0 -51 0 4 343 c4 318 6
347 27 417 37 123 79 198 156 276 150 153 383 215 680 182z m71 -193 c176 -46
271 -141 321 -325 15 -55 18 -108 18 -360 0 -252 -3 -304 -18 -360 -46 -166
-123 -252 -283 -312 -58 -22 -70 -23 -567 -26 l-508 -3 3 53 3 53 470 2 c517
3 559 7 650 64 52 33 98 100 123 179 14 47 17 100 17 350 0 281 -1 299 -23
369 -19 61 -32 83 -76 127 -77 76 -153 99 -336 99 -111 -1 -148 -4 -206 -23
-82 -25 -153 -81 -186 -146 -43 -83 -50 -137 -55 -458 l-5 -308 -49 0 -49 0 0
300 c0 235 3 318 16 377 54 264 238 382 575 367 58 -2 132 -11 165 -19z m-111
-164 c111 -16 148 -31 190 -75 69 -71 78 -113 83 -395 6 -350 -16 -456 -108
-517 -76 -50 -116 -54 -623 -54 l-468 0 3 53 3 52 455 2 c500 3 545 7 584 54
41 48 48 111 44 389 -3 235 -5 259 -24 301 -31 67 -80 84 -239 83 -100 0 -128
-4 -167 -21 -85 -39 -98 -98 -98 -470 l0 -263 -56 0 -56 0 5 303 c6 358 15
405 90 484 60 64 229 96 382 74z"/>
</g>
</svg>
