<svg width="178" height="33" viewBox="0 0 178 33" fill="none" xmlns="http://www.w3.org/2000/svg">
<path d="M23.1069 15.9672H22.5408C20.5284 15.9672 18.8304 16.2108 17.321 16.698C16.189 17.0633 15.1199 17.6114 14.2395 18.2812C15.057 17.1851 15.623 15.9672 16.0004 14.5667C16.3777 13.227 16.5664 11.6437 16.5664 9.93869V6.65039H14.9941V9.93869C14.9941 11.5219 14.8055 12.9225 14.491 14.1404C14.1137 15.6628 13.359 17.0024 12.3528 18.0985C11.3466 19.1946 10.0259 19.9863 8.45368 20.4734C7.07012 20.8997 5.56078 21.1433 3.73699 21.1433H3.29677C2.41632 21.1433 0.403866 21.1433 0.403866 21.1433V22.6656C0.84409 22.6656 2.35343 22.6656 3.23388 22.6656H3.79988C5.81233 22.6656 7.51034 22.4221 9.01968 21.9349C10.1517 21.5695 11.2208 21.0215 12.1012 20.3516C11.2837 21.4477 10.7177 22.6656 10.3404 24.0662C9.96302 25.4059 9.77435 26.9891 9.77435 28.6942V31.9825H11.3466V28.6942C11.3466 27.1109 11.5352 25.7104 11.8497 24.4925C12.227 22.9701 12.9817 21.6304 13.9879 20.5343C14.9941 19.4382 16.3148 18.6466 17.8871 18.1594C19.2706 17.7332 20.78 17.4896 22.6037 17.4896H23.044C23.9244 17.4896 25.9369 17.4896 25.9369 17.4896V15.9672C25.4966 15.9672 23.9873 15.9672 23.1069 15.9672Z" fill="white"/>
<path d="M23.0442 18.6465H22.5411C20.8431 18.6465 19.3966 18.8292 18.2018 19.2554C16.8182 19.6817 15.6862 20.4124 14.8057 21.3258C13.9253 22.2393 13.2964 23.4571 12.9191 24.7968C12.6046 25.9538 12.4788 27.2935 12.4788 28.755V32.0433H14.0511V28.755C14.0511 27.4153 14.1768 26.1974 14.4284 25.1622C14.7428 24.0661 15.246 23.0918 15.9377 22.361C16.6295 21.6303 17.5729 21.0214 18.7049 20.656C19.774 20.2906 21.0318 20.1688 22.5411 20.1688H23.0442C23.9247 20.1688 25.7484 20.1688 25.8742 20.1688V18.6465C25.7484 18.6465 23.9876 18.6465 23.0442 18.6465Z" fill="white"/>
<path d="M18.8935 21.7528C17.9501 22.0573 17.1954 22.5444 16.6294 23.1534C16.0634 23.7623 15.6232 24.5539 15.3717 25.4673C15.1201 26.3808 14.9943 27.5378 14.9943 28.7556V32.1048H16.5666V28.7556C16.5666 27.5986 16.6923 26.6243 16.881 25.8327C17.0697 25.1629 17.3841 24.5539 17.7615 24.1277C18.1388 23.7014 18.7048 23.3969 19.3966 23.1534C20.2141 22.9098 21.1575 22.788 22.4152 22.788H25.7484V21.2656H22.4152C20.9688 21.2656 19.8368 21.4483 18.8935 21.7528Z" fill="white"/>
<path d="M3.17099 20.1077H3.6741C5.37211 20.1077 6.81856 19.925 8.01345 19.4988C9.39701 19.0725 10.529 18.3418 11.4095 17.4284C12.2899 16.5149 12.9188 15.2971 13.2961 13.9574C13.6106 12.8004 13.7364 11.4607 13.7364 9.99924V6.71094H12.227V9.99924C12.227 11.3389 12.1012 12.5568 11.8497 13.592C11.5352 14.6881 11.0321 15.6624 10.3404 16.3932C9.64857 17.1239 8.70523 17.7328 7.57323 18.0982C6.50411 18.4636 5.24633 18.6463 3.73699 18.6463H3.23388C2.35343 18.6463 0.529645 18.6463 0.403866 18.6463V20.1686C0.466756 20.1077 2.22765 20.1077 3.17099 20.1077Z" fill="white"/>
<path d="M7.3203 17.0024C8.26364 16.698 9.01831 16.2108 9.58431 15.6019C10.1503 14.9929 10.5905 14.2013 10.8421 13.2879C11.0936 12.3745 11.2194 11.2175 11.2194 9.99959V6.65039H9.6472V9.99959C9.6472 11.1566 9.52142 12.1309 9.33275 12.9225C9.14409 13.5924 8.82964 14.2013 8.4523 14.6276C8.07497 15.0538 7.50897 15.3583 6.81719 15.6019C5.99963 15.8455 5.05629 15.9672 3.79851 15.9672H0.465383V17.4896H3.79851C5.24496 17.4287 6.37696 17.3069 7.3203 17.0024Z" fill="white"/>
<path d="M51.2185 11.5221C49.6463 10.3043 47.0049 9.69531 43.4202 9.69531C42.1624 9.69531 40.9676 9.69531 39.7098 9.69531C38.5149 9.69531 37.4458 9.75621 36.6282 9.75621L35.8106 13.4708C36.8169 13.4708 38.0118 13.4099 39.4582 13.4099C40.8418 13.4099 42.1624 13.4099 43.4202 13.4099C44.7409 13.4099 45.7471 13.5317 46.5018 13.7143C47.2565 13.897 47.8225 14.2015 48.2627 14.506C48.64 14.8713 48.8916 15.2976 49.0174 15.8457C49.1431 16.3937 49.1431 17.0026 49.1431 17.7334V19.0122C48.64 18.7077 47.9482 18.4032 46.942 18.1596C45.9358 17.9161 44.5522 17.7334 42.7913 17.7334C39.7098 17.7334 37.3829 18.2205 35.9364 19.2557C34.49 20.291 33.7353 21.996 33.7353 24.4318V25.4061C33.7353 27.5983 34.4271 29.3033 35.7478 30.3994C37.0684 31.4955 39.3324 32.0436 42.414 32.0436H49.0803C50.7783 32.0436 51.9732 31.8 52.6649 31.252C53.2938 30.7039 53.6712 29.7296 53.6712 28.3899V16.9418C53.6083 14.5669 52.7907 12.74 51.2185 11.5221ZM49.1431 28.3899H42.414C40.7789 28.3899 39.584 28.1463 39.018 27.6592C38.3891 27.172 38.0747 26.3804 38.0747 25.4061V24.4927C38.0747 23.8837 38.1375 23.3966 38.3262 22.9703C38.452 22.544 38.7035 22.2396 39.0809 21.996C39.4582 21.7524 39.9613 21.5697 40.5902 21.5088C41.2191 21.3871 42.0367 21.3871 43.0429 21.3871H44.0491C45.1811 21.3871 46.0616 21.4479 46.7534 21.5697C47.4451 21.6915 47.9482 21.8742 48.3256 22.1178C48.7029 22.3614 48.8916 22.6658 49.0174 23.0921C49.1431 23.5184 49.206 23.9446 49.206 24.4927V28.3899H49.1431Z" fill="white"/>
<path d="M71.0908 13.5325L71.9083 9.81796H63.4812V3.72852L58.7645 4.58104V24.0064C58.7645 25.5287 58.8903 26.8684 59.1418 27.9036C59.3934 28.9388 59.8336 29.7913 60.5254 30.4003C61.2172 31.0092 62.0976 31.4355 63.2296 31.74C64.3616 31.9835 65.8081 32.1053 67.6319 32.1053H70.8392L71.6568 28.4517H67.569C66.6885 28.4517 65.9968 28.3908 65.4308 28.269C64.8648 28.1472 64.4874 27.9645 64.173 27.5991C63.8585 27.2947 63.6699 26.8075 63.5441 26.1986C63.4183 25.5896 63.4183 24.798 63.4183 23.8846V13.5325H71.0908Z" fill="white"/>
<path d="M93.2288 10.7308C92.4113 10.1827 91.4679 9.75644 90.3359 9.51286C89.2039 9.26928 88.009 9.14749 86.6255 9.14749C84.6759 9.14749 83.2295 9.33018 82.2232 9.75644C81.217 10.1827 80.4623 10.609 80.0221 11.0961V0.0742188H75.3683V32.0438H80.0221V18.5861C80.0221 17.5509 80.085 16.6375 80.2737 15.9068C80.4623 15.176 80.7139 14.628 81.1541 14.1408C81.5944 13.6537 82.1603 13.3492 82.915 13.1665C83.6697 12.9838 84.6759 12.8621 85.8708 12.8621C87.0657 12.8621 88.009 12.9838 88.7008 13.1665C89.3926 13.3492 89.8957 13.6537 90.2731 14.0191C90.6504 14.3844 90.8391 14.8716 90.9648 15.4196C91.0277 15.9677 91.0906 16.5766 91.0906 17.3074V32.1047H95.7444V16.333C95.7444 14.9934 95.5557 13.8973 95.1155 12.9838C94.6124 12.0704 93.9835 11.3397 93.2288 10.7308Z" fill="white"/>
<path d="M105.492 0.0742188H100.838V32.0438H105.492V0.0742188Z" fill="white"/>
<path d="M128.383 11.5826C127.628 10.8519 126.685 10.2429 125.427 9.75578C124.169 9.32952 122.534 9.08594 120.584 9.08594C118.446 9.08594 116.685 9.32952 115.302 9.81667C113.981 10.3038 112.912 10.9737 112.157 11.8871C111.403 12.8005 110.899 13.8966 110.585 15.1754C110.333 16.4542 110.145 17.9765 110.145 19.5598V21.9956C110.145 23.5179 110.271 24.9185 110.522 26.1364C110.774 27.3543 111.277 28.4504 112.031 29.3029C112.786 30.1554 113.855 30.8253 115.113 31.3124C116.434 31.7996 118.132 32.0432 120.27 32.0432C120.962 32.0432 121.591 32.0432 122.094 32.0432C122.597 32.0432 123.163 32.0432 123.729 32.0432C124.295 32.0432 124.861 32.0432 125.553 32.0432C126.181 32.0432 126.999 31.9823 127.879 31.9823L128.697 28.2677C126.622 28.3286 124.861 28.3286 123.54 28.3286C122.219 28.3286 121.15 28.3286 120.27 28.3286C119.075 28.3286 118.132 28.2677 117.44 28.085C116.748 27.9023 116.182 27.6588 115.742 27.2325C115.365 26.8062 115.05 26.1973 114.924 25.4666C114.799 24.7358 114.736 23.7615 114.736 22.5436H126.999C127.565 22.5436 128.068 22.4827 128.446 22.4218C128.823 22.3 129.2 22.1174 129.452 21.752C129.703 21.4475 129.892 20.9604 130.018 20.3514C130.144 19.7425 130.206 18.9508 130.206 17.9156V17.2458C130.206 16.2106 130.081 15.1754 129.829 14.1402C129.578 13.105 129.137 12.3742 128.383 11.5826ZM125.867 19.0726H114.799C114.799 17.733 114.861 16.6977 114.987 15.8452C115.113 14.9927 115.365 14.3838 115.805 13.8966C116.182 13.4094 116.748 13.105 117.503 12.9223C118.195 12.7396 119.138 12.6787 120.333 12.6787C121.402 12.6787 122.345 12.7396 123.037 12.9223C123.729 13.105 124.295 13.3486 124.735 13.7139C125.175 14.0793 125.49 14.5664 125.615 15.2363C125.804 15.9061 125.867 16.6977 125.867 17.6112V19.0726Z" fill="white"/>
<path d="M147.124 13.5325L147.941 9.81796H139.514V3.72852L134.86 4.52014V23.9455C134.86 25.4678 134.986 26.8075 135.238 27.8427C135.489 28.8779 135.93 29.7305 136.621 30.3394C137.313 30.9483 138.194 31.3746 139.326 31.6791C140.458 31.9227 141.904 32.0444 143.728 32.0444H146.935L147.753 28.3908H143.728C142.847 28.3908 142.156 28.3299 141.59 28.2081C141.024 28.0863 140.646 27.9036 140.332 27.5382C140.017 27.2338 139.829 26.7466 139.703 26.1377C139.577 25.5287 139.577 24.7371 139.577 23.8237V13.4716H147.124V13.5325Z" fill="white"/>
<path d="M153.727 0.378906C152.721 0.378906 151.967 0.622484 151.463 1.04875C151.023 1.47501 150.772 2.20574 150.772 3.24095C150.772 4.21526 151.023 4.94599 151.463 5.43315C151.904 5.85941 152.658 6.10299 153.727 6.10299C154.797 6.10299 155.488 5.85941 155.991 5.43315C156.432 5.00689 156.683 4.27615 156.683 3.24095C156.683 2.26663 156.432 1.5359 155.991 1.04875C155.488 0.622484 154.734 0.378906 153.727 0.378906Z" fill="white"/>
<path d="M156.054 9.81641H151.401V32.0429H156.054V9.81641Z" fill="white"/>
<path d="M175.235 28.3899C174.292 28.3899 173.034 28.3899 171.399 28.3899C170.267 28.3899 169.261 28.329 168.506 28.2072C167.751 28.0854 167.122 27.781 166.682 27.3547C166.242 26.9285 165.928 26.2586 165.739 25.467C165.55 24.6145 165.487 23.5184 165.487 22.1178V19.8647C165.487 18.4641 165.55 17.368 165.739 16.5155C165.928 15.663 166.179 15.054 166.619 14.6278C167.06 14.2015 167.688 13.897 168.443 13.7752C169.198 13.6535 170.204 13.5926 171.399 13.5926C172.154 13.5926 172.908 13.5926 173.726 13.5926C174.543 13.5926 175.55 13.6535 176.807 13.7143L177.625 9.8171C176.556 9.75621 175.487 9.69531 174.355 9.69531C173.223 9.69531 172.279 9.69531 171.399 9.69531C169.386 9.69531 167.751 9.878 166.368 10.1825C164.984 10.5478 163.915 11.0959 163.035 11.8875C162.217 12.6791 161.588 13.7143 161.211 14.9931C160.834 16.2719 160.645 17.8552 160.645 19.682V21.9351C160.645 23.8228 160.834 25.3452 161.211 26.624C161.588 27.9028 162.217 28.938 163.035 29.7296C163.852 30.5212 164.984 31.1302 166.368 31.4346C167.751 31.7391 169.386 31.9218 171.399 31.9218C172.154 31.9218 173.097 31.9218 174.166 31.9218C175.235 31.9218 176.178 31.8609 176.933 31.8609L177.751 28.1463C176.996 28.329 176.178 28.329 175.235 28.3899Z" fill="white"/>
</svg>
