<svg width="83" height="15" viewBox="0 0 83 15" fill="none" xmlns="http://www.w3.org/2000/svg">
<path d="M11.9049 5.78969H11.6081C10.5528 5.78969 9.66239 5.9216 8.87093 6.18542C8.27734 6.38328 7.71672 6.68008 7.25504 7.04283C7.68374 6.44924 7.98054 5.78969 8.1784 5.03121C8.37627 4.3057 8.4752 3.44829 8.4752 2.52492V0.744141H7.65077V2.52492C7.65077 3.38234 7.55183 4.14082 7.38695 4.80036C7.18908 5.6248 6.79335 6.3503 6.26571 6.9439C5.73807 7.53749 5.04555 7.9662 4.22111 8.23002C3.49561 8.46086 2.70415 8.59277 1.7478 8.59277H1.51696C1.05528 8.59277 0 8.59277 0 8.59277V9.4172C0.230842 9.4172 1.0223 9.4172 1.48398 9.4172H1.78078C2.83606 9.4172 3.72645 9.2853 4.51791 9.02148C5.1115 8.82361 5.67212 8.52681 6.1338 8.16406C5.7051 8.75766 5.4083 9.41721 5.21044 10.1757C5.01257 10.9012 4.91364 11.7586 4.91364 12.682V14.4628H5.73807V12.682C5.73807 11.8246 5.83701 11.0661 6.00189 10.4065C6.19976 9.58209 6.59549 8.85659 7.12313 8.26299C7.65076 7.6694 8.34329 7.2407 9.16773 6.97688C9.89323 6.74603 10.6847 6.61412 11.641 6.61412H11.8719C12.3336 6.61412 13.3888 6.61412 13.3888 6.61412V5.78969C13.158 5.78969 12.3665 5.78969 11.9049 5.78969Z" fill="#080808"/>
<path d="M11.8719 7.24023H11.6081C10.7177 7.24023 9.95918 7.33917 9.33261 7.57001C8.60711 7.80085 8.01351 8.19658 7.55183 8.69124C7.09015 9.1859 6.76037 9.84545 6.56251 10.571C6.39762 11.1975 6.33167 11.923 6.33167 12.7145V14.4953H7.1561V12.7145C7.1561 11.989 7.22206 11.3294 7.35397 10.7688C7.51885 10.1752 7.78267 9.64759 8.14542 9.25186C8.50818 8.85613 9.00284 8.52635 9.59643 8.32849C10.157 8.13062 10.8166 8.06467 11.6081 8.06467H11.8719C12.3336 8.06467 13.2899 8.06467 13.3559 8.06467V7.24023C13.2899 7.24023 12.3665 7.24023 11.8719 7.24023Z" fill="#080808"/>
<path d="M9.69542 8.92202C9.20076 9.08691 8.80503 9.35073 8.50823 9.6805C8.21143 10.0103 7.98059 10.439 7.84868 10.9336C7.71677 11.4283 7.65082 12.0549 7.65082 12.7144V14.5282H8.47525V12.7144C8.47525 12.0879 8.54121 11.5602 8.64014 11.1315C8.73907 10.7688 8.90396 10.439 9.10182 10.2081C9.29969 9.9773 9.59649 9.81241 9.95924 9.6805C10.3879 9.54859 10.8826 9.48264 11.5422 9.48264H13.29V8.6582H11.5422C10.7837 8.6582 10.1901 8.75714 9.69542 8.92202Z" fill="#080808"/>
<path d="M1.45101 8.03238H1.71483C2.60522 8.03238 3.3637 7.93345 3.99027 7.70261C4.71577 7.47176 5.30937 7.07603 5.77105 6.58137C6.23274 6.08671 6.56251 5.42716 6.76037 4.70166C6.92526 4.07509 6.99122 3.34958 6.99122 2.55813V0.777344H6.19976V2.55813C6.19976 3.28363 6.1338 3.94318 6.00189 4.50379C5.83701 5.09739 5.57319 5.62503 5.21043 6.02076C4.84768 6.41649 4.35302 6.74626 3.75943 6.94412C3.19881 7.14199 2.53926 7.24092 1.7478 7.24092H1.48398C1.0223 7.24092 0.0659549 7.24092 0 7.24092V8.06536C0.0329774 8.03238 0.956346 8.03238 1.45101 8.03238Z" fill="#080808"/>
<path d="M3.62713 6.35031C4.12179 6.18542 4.51752 5.9216 4.81432 5.59182C5.11112 5.26205 5.34196 4.83334 5.47387 4.33868C5.60578 3.84402 5.67173 3.21745 5.67173 2.5579V0.744141H4.8473V2.5579C4.8473 3.18447 4.78134 3.71211 4.68241 4.14082C4.58348 4.50357 4.41859 4.83334 4.22073 5.06418C4.02286 5.29503 3.72606 5.45991 3.36331 5.59182C2.93461 5.72373 2.43995 5.78969 1.7804 5.78969H0.0325928V6.61412H1.7804C2.53888 6.58115 3.13247 6.51519 3.62713 6.35031Z" fill="#080808"/>
<path d="M30.1427 5.74912C29.4875 5.22497 28.3867 4.96289 26.8929 4.96289C26.3688 4.96289 25.8708 4.96289 25.3467 4.96289C24.8487 4.96289 24.4032 4.9891 24.0625 4.9891L23.7218 6.58776C24.1411 6.58776 24.6391 6.56156 25.2418 6.56156C25.8184 6.56156 26.3688 6.56156 26.8929 6.56156C27.4433 6.56156 27.8626 6.61397 28.1771 6.69259C28.4916 6.77122 28.7274 6.90226 28.9109 7.03329C29.0681 7.19054 29.173 7.37399 29.2254 7.60986C29.2778 7.84573 29.2778 8.10781 29.2778 8.4223V8.97266C29.0681 8.84162 28.7799 8.71058 28.3605 8.60575C27.9412 8.50092 27.3646 8.4223 26.6308 8.4223C25.3467 8.4223 24.377 8.63196 23.7742 9.07749C23.1714 9.52302 22.8569 10.2568 22.8569 11.3051V11.7245C22.8569 12.6679 23.1452 13.4017 23.6956 13.8735C24.2459 14.3452 25.1894 14.5811 26.4736 14.5811H29.2516C29.9592 14.5811 30.4571 14.4763 30.7454 14.2404C31.0075 14.0045 31.1648 13.5852 31.1648 13.0086V8.0816C31.1385 7.0595 30.7978 6.27327 30.1427 5.74912ZM29.2778 13.0086H26.4736C25.7922 13.0086 25.2942 12.9038 25.0584 12.6941C24.7963 12.4845 24.6653 12.1438 24.6653 11.7245V11.3313C24.6653 11.0693 24.6915 10.8596 24.7701 10.6762C24.8225 10.4927 24.9273 10.3617 25.0846 10.2568C25.2418 10.152 25.4515 10.0734 25.7136 10.0472C25.9756 9.99476 26.3163 9.99476 26.7357 9.99476H27.155C27.6267 9.99476 27.9936 10.021 28.2819 10.0734C28.5702 10.1258 28.7799 10.2044 28.9371 10.3092C29.0943 10.4141 29.173 10.5451 29.2254 10.7286C29.2778 10.912 29.304 11.0955 29.304 11.3313V13.0086H29.2778Z" fill="#080808"/>
<path d="M38.4239 6.61396L38.7646 5.01529H35.2527V2.39453L33.2872 2.76144V11.1217C33.2872 11.7769 33.3396 12.3534 33.4444 12.799C33.5492 13.2445 33.7327 13.6114 34.021 13.8735C34.3093 14.1355 34.6762 14.319 35.1479 14.45C35.6196 14.5549 36.2224 14.6073 36.9824 14.6073H38.319L38.6597 13.0348H36.9562C36.5893 13.0348 36.301 13.0086 36.0652 12.9562C35.8293 12.9038 35.6721 12.8252 35.541 12.6679C35.41 12.5369 35.3314 12.3272 35.2789 12.0651C35.2265 11.8031 35.2265 11.4624 35.2265 11.0693V6.61396H38.4239Z" fill="#080808"/>
<path d="M47.6493 5.4086C47.3086 5.17273 46.9155 4.98928 46.4438 4.88445C45.972 4.77962 45.4741 4.7272 44.8975 4.7272C44.0851 4.7272 43.4823 4.80582 43.063 4.98928C42.6437 5.17273 42.3292 5.35619 42.1457 5.56585V0.822266H40.2064V14.5813H42.1457V8.78938C42.1457 8.34385 42.1719 7.95074 42.2506 7.63625C42.3292 7.32176 42.434 7.08589 42.6175 6.87623C42.8009 6.66657 43.0368 6.53553 43.3513 6.45691C43.6658 6.37828 44.0851 6.32587 44.583 6.32587C45.081 6.32587 45.4741 6.37828 45.7624 6.45691C46.0507 6.53553 46.2603 6.66657 46.4176 6.82381C46.5748 6.98106 46.6534 7.19072 46.7059 7.42659C46.7321 7.66246 46.7583 7.92453 46.7583 8.23902V14.6075H48.6976V7.8197C48.6976 7.24313 48.619 6.7714 48.4356 6.37828C48.2259 5.98517 47.9638 5.67068 47.6493 5.4086Z" fill="#080808"/>
<path d="M52.7598 0.822266H50.8204V14.5813H52.7598V0.822266Z" fill="#080808"/>
<path d="M62.299 5.77568C61.9845 5.46119 61.5914 5.19912 61.0672 4.98946C60.5431 4.806 59.8617 4.70117 59.0493 4.70117C58.1582 4.70117 57.4244 4.806 56.8478 5.01566C56.2975 5.22532 55.8519 5.51361 55.5374 5.90672C55.2229 6.29984 55.0133 6.77157 54.8822 7.32193C54.7774 7.87229 54.6988 8.52749 54.6988 9.20888V10.2572C54.6988 10.9124 54.7512 11.5152 54.856 12.0393C54.9609 12.5635 55.1705 13.0352 55.485 13.4021C55.7995 13.769 56.245 14.0573 56.7692 14.267C57.3196 14.4766 58.0272 14.5814 58.9182 14.5814C59.2065 14.5814 59.4686 14.5814 59.6782 14.5814C59.8879 14.5814 60.1238 14.5814 60.3596 14.5814C60.5955 14.5814 60.8314 14.5814 61.1197 14.5814C61.3817 14.5814 61.7224 14.5552 62.0893 14.5552L62.43 12.9566C61.5652 12.9828 60.8314 12.9828 60.281 12.9828C59.7307 12.9828 59.2851 12.9828 58.9182 12.9828C58.4203 12.9828 58.0272 12.9566 57.7389 12.878C57.4506 12.7993 57.2147 12.6945 57.0313 12.511C56.874 12.3276 56.743 12.0655 56.6906 11.751C56.6382 11.4365 56.6119 11.0172 56.6119 10.4931H61.7224C61.9583 10.4931 62.168 10.4669 62.3252 10.4406C62.4825 10.3882 62.6397 10.3096 62.7445 10.1524C62.8494 10.0213 62.928 9.81166 62.9804 9.54958C63.0328 9.28751 63.059 8.94681 63.059 8.50128V8.21299C63.059 7.76746 63.0066 7.32193 62.9018 6.87641C62.797 6.43088 62.6135 6.11638 62.299 5.77568ZM61.2507 8.99922H56.6382C56.6382 8.42266 56.6644 7.97713 56.7168 7.61022C56.7692 7.24331 56.874 6.98124 57.0575 6.77157C57.2147 6.56191 57.4506 6.43088 57.7651 6.35225C58.0534 6.27363 58.4465 6.24742 58.9444 6.24742C59.39 6.24742 59.7831 6.27363 60.0714 6.35225C60.3596 6.43088 60.5955 6.53571 60.779 6.69295C60.9624 6.8502 61.0935 7.05986 61.1459 7.34814C61.2245 7.63643 61.2507 7.97713 61.2507 8.37024V8.99922Z" fill="#080808"/>
<path d="M70.1089 6.61396L70.4496 5.01529H66.9378V2.39453L64.9984 2.73523V11.0955C64.9984 11.7507 65.0508 12.3272 65.1557 12.7728C65.2605 13.2183 65.4439 13.5852 65.7322 13.8473C66.0205 14.1093 66.3874 14.2928 66.8592 14.4238C67.3309 14.5287 67.9337 14.5811 68.6937 14.5811H70.0303L70.371 13.0086H68.6937C68.3268 13.0086 68.0385 12.9824 67.8026 12.93C67.5668 12.8776 67.4095 12.799 67.2785 12.6417C67.1474 12.5107 67.0688 12.301 67.0164 12.0389C66.964 11.7769 66.964 11.4362 66.964 11.043V6.58775H70.1089V6.61396Z" fill="#080808"/>
<path d="M72.5988 0.953125C72.1794 0.953125 71.8649 1.05796 71.6553 1.24141C71.4718 1.42486 71.367 1.73935 71.367 2.18488C71.367 2.60421 71.4718 2.9187 71.6553 3.12836C71.8387 3.31181 72.1532 3.41664 72.5988 3.41664C73.0443 3.41664 73.3326 3.31181 73.5422 3.12836C73.7257 2.94491 73.8305 2.63041 73.8305 2.18488C73.8305 1.76556 73.7257 1.45107 73.5422 1.24141C73.3326 1.05796 73.0181 0.953125 72.5988 0.953125Z" fill="#080808"/>
<path d="M73.8305 5.01562H71.8912V14.5814H73.8305V5.01562Z" fill="#080808"/>
<path d="M81.8237 13.0086C81.4306 13.0086 80.9064 13.0086 80.225 13.0086C79.7533 13.0086 79.334 12.9824 79.0195 12.93C78.705 12.8776 78.4429 12.7466 78.2595 12.5631C78.076 12.3797 77.945 12.0914 77.8663 11.7507C77.7877 11.3838 77.7615 10.912 77.7615 10.3092V9.33957C77.7615 8.73679 77.7877 8.26505 77.8663 7.89815C77.945 7.53124 78.0498 7.26916 78.2333 7.08571C78.4167 6.90226 78.6788 6.77122 78.9933 6.7188C79.3078 6.66639 79.7271 6.64018 80.225 6.64018C80.5395 6.64018 80.854 6.64018 81.1947 6.64018C81.5354 6.64018 81.9547 6.66639 82.4789 6.69259L82.8196 5.01531C82.3741 4.9891 81.9285 4.96289 81.4568 4.96289C80.9851 4.96289 80.5919 4.96289 80.225 4.96289C79.3864 4.96289 78.705 5.04151 78.1284 5.17255C77.5519 5.3298 77.1063 5.56567 76.7394 5.90637C76.3987 6.24706 76.1366 6.69259 75.9794 7.24295C75.8222 7.79331 75.7435 8.47471 75.7435 9.26094V10.2306C75.7435 11.0431 75.8222 11.6983 75.9794 12.2486C76.1366 12.799 76.3987 13.2445 76.7394 13.5852C77.0801 13.9259 77.5519 14.188 78.1284 14.319C78.705 14.4501 79.3864 14.5287 80.225 14.5287C80.5395 14.5287 80.9326 14.5287 81.3782 14.5287C81.8237 14.5287 82.2168 14.5025 82.5313 14.5025L82.872 12.9038C82.5575 12.9824 82.2168 12.9824 81.8237 13.0086Z" fill="#080808"/>
</svg>
