<svg width="20" height="21" viewBox="0 0 20 21" fill="none" xmlns="http://www.w3.org/2000/svg">
<path d="M1.8721 0C0.865564 0 0 0.788848 0 1.77874C0 2.77204 0.865564 3.59007 1.8721 3.59007C2.91769 3.59007 3.7819 2.77204 3.7819 1.77874C3.7819 0.788634 2.91769 0 1.8721 0Z" transform="translate(9.64355)" fill="white"/>
<path d="M18.7077 15.352C19.4898 14.7723 20 13.873 20 12.8675C20 11.1429 18.4947 9.76899 16.6733 9.76899C16.2944 9.76899 15.9276 9.83629 15.5844 9.95427L13.7076 6.71071L16.7025 6.71327C16.7036 6.71327 16.7048 6.71327 16.7059 6.71327C16.9319 6.71327 17.1393 6.59379 17.2437 6.40297L18.6922 3.75679C18.8467 3.47482 18.7311 3.12767 18.4343 2.98136C18.138 2.83505 17.7712 2.94537 17.6166 3.22671L16.3382 5.56109L12.6842 5.55555C12.6831 5.55555 12.682 5.55555 12.6809 5.55555C12.4678 5.55555 12.2692 5.66246 12.1603 5.83646C12.0501 6.01174 12.0463 6.22876 12.15 6.40765L13.3648 8.50819L9.38652 11.9289C9.1405 11.7937 8.86507 11.706 8.57034 11.6719L11.3125 7.07425C11.3174 7.06574 11.3192 7.05594 11.3239 7.04699C11.3583 6.98459 11.3875 6.91879 11.4086 6.84829C11.4113 6.83892 11.4157 6.82998 11.418 6.82061C11.4189 6.81677 11.4211 6.81315 11.4223 6.80932C11.4411 6.73307 11.4483 6.65726 11.4494 6.5825C11.4494 6.56419 11.446 6.54694 11.4452 6.52862C11.4418 6.46558 11.4337 6.40425 11.4189 6.34376C11.4133 6.32161 11.407 6.29925 11.3998 6.2771C11.3794 6.21364 11.3522 6.15315 11.3194 6.09522C11.3138 6.08479 11.3116 6.07329 11.3055 6.06349C11.304 6.06051 11.301 6.05859 11.299 6.05561C11.2564 5.98767 11.2045 5.92527 11.1462 5.86841C11.1311 5.8535 11.1143 5.84157 11.0986 5.82773C11.0517 5.78769 11.0025 5.75149 10.9482 5.71975C10.9262 5.70655 10.9048 5.69398 10.8824 5.68227C10.8265 5.65458 10.7672 5.63222 10.7064 5.61327C10.6855 5.60688 10.666 5.59836 10.6456 5.59346C10.6397 5.59197 10.6348 5.58942 10.6292 5.58792L7.50028 4.88256L9.60695 2.91172L10.8335 4.75776C11.0485 5.06359 11.3358 5.20223 11.625 5.20223H15.2632C16.379 5.20223 16.379 3.80024 15.2632 3.80024H12.1291L10.0388 0.7245C9.57171 0.0423517 8.77865 0.0061465 8.77865 0.0061465C8.05832 -0.0637083 7.59007 0.484907 7.59007 0.484907L3.5929 4.24386C3.30333 4.51732 3.19424 4.89598 3.19424 5.26889C3.19424 5.37943 3.21062 5.4874 3.23554 5.59282L3.22387 5.5958L3.45013 6.43875H2.61128C2.27637 6.43875 2.00498 6.69623 2.00498 7.01398C2.00498 7.33174 2.27637 7.58922 2.61128 7.58922H8.54744L6.76783 10.573L6.07915 8.00877H3.87192L5.76197 15.0447L3.40322 17.0724H0.606299C0.271387 17.0724 0 17.3301 0 17.6479C0 17.9652 0.271387 18.2229 0.606299 18.2229H19.3439C19.558 18.2229 19.7564 18.1154 19.8662 17.9407C19.9746 17.7659 19.9789 17.5491 19.8754 17.3706L18.7077 15.352ZM8.3214 12.9651C8.72455 12.9651 9.05767 13.2692 9.05767 13.6508C9.05767 14.0337 8.72455 14.3494 8.3214 14.3494C7.93261 14.3494 7.59882 14.0337 7.59882 13.6508C7.59882 13.269 7.93239 12.9651 8.3214 12.9651ZM5.20865 17.0726L7.21071 15.3516C7.53373 15.5484 7.90927 15.667 8.30726 15.667C9.47788 15.667 10.4454 14.751 10.4454 13.6385C10.4454 13.3224 10.3596 13.0285 10.2198 12.7644L13.9644 9.54558L14.5395 10.5391C13.8553 11.105 13.4104 11.9338 13.4104 12.8677C13.4104 14.5983 14.9186 16.0235 16.6731 16.0235C17.0062 16.0235 17.3279 15.9748 17.6327 15.8862L18.3194 17.0726H5.20865Z" transform="translate(0 2.72949)" fill="white"/>
</svg>
