<svg width="14" height="20" viewBox="0 0 14 20" fill="none" xmlns="http://www.w3.org/2000/svg">
<path d="M10.2304 5.81594C5.96352 2.87162 7.88713 0 7.88713 0C3.72513 2.47177 2.81579 6.28848 3.83006 11.0866C2.32614 9.8144 2.1163 8.32406 2.15127 6.36118C0.22766 8.46946 -0.0871126 10.7231 0.0178117 13.1586C0.22766 17.1207 3.48031 20.174 7.32753 19.9923C10.9299 19.8105 13.7629 16.7935 13.9028 13.0859C14.0427 9.8871 12.7486 7.56072 10.2304 5.81594ZM7.43246 18.3202C6.48814 18.3202 5.54382 18.0294 4.7394 17.4842C4.91427 17.5205 5.12412 17.5205 5.299 17.5205C8.69155 17.5205 11.4545 14.6489 11.4545 11.0866C11.4545 10.9049 11.4545 10.6868 11.4196 10.505C11.9442 11.3411 12.224 12.2862 12.224 13.2676C12.259 16.0665 10.0905 18.3202 7.43246 18.3202Z" fill="white"/>
</svg>
