<svg width="19" height="23" viewBox="0 0 19 23" fill="none" xmlns="http://www.w3.org/2000/svg">
<path d="M15.8086 4.02436C15.1407 3.08999 14.1016 2.44312 12.8399 2.44312H6.08597C4.89847 2.44312 3.78519 3.01812 3.11722 4.02436C2.44925 4.95874 2.30081 6.18062 2.74612 7.25874L3.56253 9.19936C3.63675 9.27124 3.71097 9.34311 3.71097 9.34311C3.78519 9.41499 3.85941 9.48686 4.00784 9.48686H4.08206C4.15628 9.48686 4.30472 9.41499 4.37894 9.41499C6.08597 7.97749 8.16409 7.33061 10.4649 7.54624C12.0235 7.68999 13.5078 8.33687 14.6953 9.41499C14.7696 9.48687 14.9922 9.55874 15.0664 9.48686C15.2149 9.41499 15.3633 9.34311 15.3633 9.19936L16.1797 7.25874C16.625 6.18062 16.4766 4.95874 15.8086 4.02436ZM15.3633 6.97124L14.7696 8.40874C13.5078 7.47436 12.0977 6.89936 10.5391 6.75561C10.168 6.68374 9.87112 6.68374 9.57425 6.68374C7.64456 6.68374 5.86331 7.25874 4.30472 8.40874L3.71097 6.97124C3.26565 6.10874 3.41409 5.24624 3.93362 4.45561C4.45315 3.73686 5.19534 3.30562 6.08597 3.30562H12.8399C13.7305 3.30562 14.5469 3.73686 15.0664 4.45561C15.586 5.24624 15.7344 6.10874 15.3633 6.97124Z" fill="white" stroke="white" stroke-miterlimit="10"/>
<path d="M16.9962 10.8531L18.1837 8.05C18.9258 6.325 18.7032 4.38438 17.6641 2.80313C16.5508 1.22188 14.7696 0.359375 12.9141 0.359375H6.086C4.15631 0.359375 2.37506 1.29375 1.336 2.80313C0.296938 4.3125 0.074282 6.325 0.81647 8.05L2.00397 10.8531C1.18756 12.1469 0.742251 13.6562 0.742251 15.1656C0.742251 17.9688 2.15241 20.5563 4.45319 22.0656C4.97272 22.425 5.56647 22.6406 6.23444 22.6406H12.6915C13.3594 22.6406 13.9532 22.4969 14.4727 22.0656C17.1446 20.2688 18.4805 17.1781 18.1094 14.0156C18.0352 12.9375 17.5899 11.8594 16.9962 10.8531ZM14.0274 21.4187C13.6563 21.7062 13.211 21.7781 12.7657 21.7781H6.30866C5.86334 21.7781 5.41803 21.6344 5.04694 21.4187C2.96881 19.9812 1.70709 17.6094 1.70709 15.1656C1.70709 13.7281 2.07819 12.3625 2.89459 11.1406C2.96881 10.9969 2.96881 10.8531 2.89459 10.7094L1.63288 7.69062C1.03913 6.25312 1.18756 4.52812 2.07819 3.23438C2.96881 1.94063 4.52741 1.15 6.086 1.15H12.8399C14.4727 1.15 15.9571 1.94063 16.8477 3.23438C17.7383 4.52812 17.961 6.25312 17.293 7.69062L16.0313 10.6375C15.9571 10.7094 15.9571 10.8531 16.0313 10.9969C16.0313 11.0688 16.1055 11.0687 16.1055 11.0687C16.6993 12.0031 17.0704 13.0094 17.2188 14.0875C17.6641 16.9625 16.4024 19.7656 14.0274 21.4187Z" fill="white" stroke="white" stroke-miterlimit="10"/>
</svg>
