<svg width="50" height="14" viewBox="0 0 50 14" fill="none" xmlns="http://www.w3.org/2000/svg">
<path d="M10.1893 11.6446C9.52661 11.6446 9.00198 11.5652 8.56019 11.4594C8.14601 11.3271 7.84228 11.1418 7.59377 10.9036C7.34526 10.639 7.17959 10.3214 7.06914 9.89795C6.9587 9.47451 6.90347 8.94521 6.90347 8.33651V8.07186V7.88661C6.90347 7.11912 6.82064 6.43103 6.65496 5.82234C6.46168 5.10778 6.13034 4.49909 5.66093 3.99625C5.16392 3.46695 4.52885 3.09644 3.78332 2.85825C3.14825 2.673 2.43034 2.56714 1.60198 2.56714H0.000488281V3.30816H1.49153C1.49153 3.30816 1.49153 3.30816 1.51914 3.30816C2.29228 3.30816 2.95496 3.38755 3.5072 3.57281C4.14228 3.75806 4.6669 4.07564 5.05347 4.49909C5.44004 4.89606 5.71616 5.42536 5.88183 6.00759C6.01989 6.53689 6.10273 7.17205 6.10273 7.88661V8.15126V8.33651C6.10273 8.99814 6.15795 9.58037 6.29601 10.0832C6.43407 10.6125 6.68258 11.0359 7.01392 11.38C7.34526 11.724 7.78705 11.9887 8.31168 12.1475C8.80869 12.3063 9.41616 12.3857 10.1341 12.3857C10.1341 12.3857 10.1341 12.3857 10.1617 12.3857H11.5147V11.6446H10.1893Z" fill="white"/>
<path d="M10.1888 12.9149C10.1888 12.9149 10.1612 12.9149 10.1888 12.9149C9.38806 12.9149 8.72537 12.8355 8.17313 12.6502C7.53806 12.465 7.01343 12.1474 6.62686 11.724C6.2403 11.327 5.96418 10.7977 5.79851 10.2155C5.66045 9.68615 5.57761 9.051 5.57761 8.33644V7.88654C5.57761 7.22492 5.52239 6.64269 5.38433 6.13985C5.24627 5.61055 4.99776 5.18711 4.66642 4.84307C4.33507 4.49903 3.89328 4.23438 3.36866 4.07559C2.87164 3.9168 2.26418 3.8374 1.54627 3.8374C1.54627 3.8374 1.54627 3.8374 1.51866 3.8374H0V4.57842H1.49104C1.49104 4.57842 1.49104 4.57842 1.51866 4.57842C2.15373 4.57842 2.70597 4.65782 3.12015 4.76368C3.53433 4.896 3.83806 5.08125 4.08657 5.31944C4.33507 5.58409 4.50075 5.90167 4.61119 6.32511C4.72164 6.74855 4.77686 7.27784 4.77686 7.88654V8.33644C4.77686 9.10393 4.8597 9.79201 5.02537 10.4007C5.21866 11.1153 5.55 11.724 6.0194 12.2268C6.51642 12.7561 7.15149 13.1266 7.89701 13.3648C8.53209 13.55 9.25 13.6559 10.0784 13.6559H11.4866V12.9149H10.1888Z" fill="white"/>
<path d="M7.45508 8.33658C7.45508 8.89234 7.5103 9.36872 7.62075 9.76569C7.70359 10.0833 7.84165 10.3479 8.03493 10.5332C8.2006 10.7184 8.44911 10.8508 8.75284 10.9566C9.1118 11.0625 9.5812 11.1154 10.1611 11.1154H11.5416V10.3744H10.2163C10.2163 10.3744 10.2163 10.3744 10.1887 10.3744C9.69165 10.3744 9.27747 10.3215 8.97374 10.2421C8.78045 10.1891 8.67 10.1097 8.58717 10.0303C8.47672 9.92449 8.4215 9.76569 8.36627 9.55397C8.28344 9.23639 8.22821 8.81295 8.22821 8.31011V8.09839H7.45508V8.33658ZM10.1611 10.3744C10.1887 10.3744 10.1887 10.3744 10.1611 10.3744C10.1887 10.3744 10.1887 10.3744 10.1611 10.3744Z" fill="white"/>
<path d="M1.49104 5.84886C1.51866 5.84886 1.51866 5.84886 1.49104 5.84886C2.01567 5.84886 2.40224 5.90179 2.70597 5.98119C2.89925 6.03411 3.0097 6.11351 3.09254 6.1929C3.20299 6.29876 3.25821 6.45755 3.31343 6.66927C3.39627 6.98685 3.45149 7.41029 3.45149 7.91312V8.09838V8.15131H4.22463V7.91312C4.22463 7.35736 4.1694 6.88099 4.05896 6.48402C3.97612 6.16644 3.83806 5.90179 3.64478 5.71654C3.4791 5.53128 3.2306 5.39896 2.92687 5.2931C2.56791 5.18724 2.09851 5.13431 1.51866 5.13431H0V5.87533L1.49104 5.84886ZM1.51866 5.84886C1.49104 5.84886 1.49104 5.84886 1.51866 5.84886V5.84886Z" fill="white"/>
<path d="M19.5497 0C19.8258 0 20.0743 0 20.3228 0C20.5713 0 20.7646 0.026465 20.9303 0.026465L20.5989 1.61437C20.4609 1.61437 20.3228 1.5879 20.1572 1.5879C19.9915 1.5879 19.881 1.5879 19.8258 1.5879C19.2736 1.5879 18.8318 1.61437 18.5004 1.6673C18.1691 1.72023 17.893 1.85255 17.6997 2.03781C17.5064 2.22306 17.3684 2.48771 17.3131 2.83176C17.2303 3.1758 17.2027 3.59924 17.2027 4.15501H20.2676L19.9363 5.74291H17.2027V13.603H15.187V4.26087C15.187 3.49338 15.2698 2.83176 15.4079 2.27599C15.546 1.74669 15.7945 1.29679 16.1258 0.952741C16.4572 0.608696 16.899 0.37051 17.4788 0.21172C18.031 0.0793951 18.7213 0 19.5497 0ZM21.8967 0.026465H23.9124V13.6295H21.8967V0.026465Z" fill="white"/>
<path d="M30.0977 3.89023C30.9261 3.89023 31.6164 3.96962 32.1962 4.10195C32.7761 4.23427 33.2455 4.49892 33.6321 4.84297C33.991 5.18701 34.2671 5.66338 34.4328 6.24561C34.5985 6.82784 34.6813 7.54239 34.6813 8.4422V9.44787C34.6813 10.3212 34.5985 11.0622 34.4328 11.6445C34.2671 12.2267 33.991 12.6766 33.6321 13.0471C33.2731 13.3911 32.7761 13.6293 32.1962 13.7881C31.6164 13.9204 30.9261 13.9998 30.0977 13.9998C29.2694 13.9998 28.5791 13.9204 27.9992 13.7881C27.4194 13.6558 26.95 13.3911 26.5634 13.0471C26.2045 12.7031 25.9283 12.2267 25.7627 11.6445C25.597 11.0622 25.5142 10.3477 25.5142 9.44787V8.4422C25.5142 7.56886 25.597 6.82784 25.7627 6.24561C25.9283 5.66338 26.2045 5.21348 26.5634 4.84297C26.9224 4.49892 27.4194 4.26074 27.9992 4.10195C28.5791 3.94316 29.2694 3.89023 30.0977 3.89023ZM32.6656 8.38927C32.6656 7.75411 32.638 7.22481 32.5552 6.8543C32.4724 6.45733 32.3619 6.16621 32.1686 5.95449C31.9753 5.74278 31.7268 5.61045 31.3955 5.53106C31.0642 5.45166 30.6224 5.4252 30.0977 5.4252C29.5731 5.4252 29.1313 5.45166 28.8 5.53106C28.4686 5.61045 28.2201 5.74278 28.0268 5.95449C27.8336 6.16621 27.7231 6.45733 27.6403 6.8543C27.5574 7.25128 27.5298 7.75411 27.5298 8.38927V9.39494C27.5298 10.0301 27.5574 10.5594 27.6403 10.9299C27.7231 11.3269 27.8336 11.618 28.0268 11.8297C28.2201 12.0414 28.4686 12.1738 28.8 12.2532C29.1313 12.3325 29.5731 12.359 30.0977 12.359C30.6224 12.359 31.0642 12.3325 31.3955 12.2532C31.7268 12.1738 31.9753 12.0414 32.1686 11.8297C32.3619 11.618 32.4724 11.3269 32.5552 10.9299C32.638 10.5329 32.6656 10.0301 32.6656 9.39494V8.38927Z" fill="white"/>
<path d="M42.4678 6.48401L40.4797 13.6296H38.4088L35.4819 4.15509H37.4976L39.4581 11.5918L41.5289 4.15509H43.4894L45.4775 11.6447L47.5484 4.15509H49.426L46.4439 13.6296H44.373L42.4678 6.48401Z" fill="white"/>
</svg>
