<svg width="34" height="14" viewBox="0 0 34 14" fill="none" xmlns="http://www.w3.org/2000/svg">
<path d="M16.0257 0.0264282H14.0972V13.3783H16.0257V0.0264282Z" fill="white"/>
<path d="M20.0999 4.09805H18.1714V13.3783H20.0999V4.09805Z" fill="white"/>
<path d="M19.1486 0.158722C18.714 0.158722 18.4152 0.26448 18.225 0.449556C18.0349 0.634632 17.9263 0.925465 17.9263 1.3485C17.9263 1.77153 18.0078 2.06236 18.225 2.24744C18.4152 2.43251 18.714 2.53827 19.1486 2.53827C19.5831 2.53827 19.8819 2.43251 20.0721 2.24744C20.2622 2.06236 20.3708 1.77153 20.3708 1.3485C20.3708 0.925465 20.2622 0.634632 20.0721 0.449556C19.8819 0.26448 19.5831 0.158722 19.1486 0.158722Z" fill="white"/>
<path d="M30.883 11.7919C30.6657 11.739 30.4756 11.6597 30.3669 11.5275C30.2311 11.3953 30.1496 11.2103 30.1225 10.9459C30.0681 10.6815 30.0681 10.3642 30.0681 9.9676V5.65798H33.2461L33.572 4.09805H30.0681V2.08865L28.1396 2.43237V10.0205C28.1396 10.655 28.194 11.2103 28.3026 11.6333C28.4113 12.0563 28.6014 12.4 28.873 12.6644C29.1446 12.9288 29.5249 13.1139 29.9867 13.2197C30.4484 13.3254 31.0731 13.3783 31.8065 13.3783H33.1374L33.4634 11.8448H31.7522C31.3991 11.8448 31.1003 11.8448 30.883 11.7919Z" fill="white"/>
<path d="M26.4833 0C25.6956 0 25.0166 0.0793183 24.4734 0.211515C23.9301 0.370152 23.4955 0.608107 23.1696 0.951819C22.8437 1.29553 22.5992 1.71856 22.4634 2.24735C22.3276 2.77614 22.2461 3.41069 22.2461 4.17743V13.3783H24.1746V5.65804H26.8093L27.1352 4.09811H24.2017C24.2017 3.56932 24.2289 3.11985 24.3104 2.80258C24.3647 2.48531 24.5005 2.22091 24.6907 2.03584C24.8808 1.85076 25.1253 1.71856 25.4784 1.66568C25.7771 1.58637 26.2117 1.55993 26.755 1.55993C26.9451 1.55993 27.1352 1.55993 27.271 1.55993C27.4068 1.55993 27.5698 1.58637 27.7599 1.58637L28.0859 0.0264394C27.9229 0.0264394 27.7056 0 27.4068 0C27.1081 0 26.8093 0 26.4833 0Z" fill="white"/>
<path d="M5.86696 8.38122C6.30155 7.90531 6.87195 7.56159 7.55099 7.35008C8.14855 7.165 8.80044 7.05925 9.58813 7.05925H9.77826C10.1585 7.05925 11.0277 7.05925 11.0277 7.05925V6.39826C10.8376 6.39826 10.1857 6.39826 9.80543 6.39826H9.56097C8.69179 6.39826 7.95842 6.50402 7.30654 6.71553C6.81762 6.87417 6.35587 7.11212 5.97561 7.40296C6.32871 6.92705 6.57317 6.39826 6.73614 5.79015C6.89911 5.20849 6.98059 4.52106 6.98059 3.78076V2.35303H6.30155V3.78076C6.30155 4.46818 6.22006 5.07629 6.08425 5.60508C5.92128 6.26606 5.59534 6.84773 5.16075 7.32364C4.72616 7.79955 4.15576 8.14326 3.47672 8.35478C2.87916 8.53985 2.22727 8.64561 1.43958 8.64561H1.24944C0.869179 8.64561 0 8.64561 0 8.64561V9.3066C0.190133 9.3066 0.842017 9.3066 1.22228 9.3066H1.46674C2.33592 9.3066 3.06929 9.20084 3.72117 8.98932C4.21009 8.83069 4.67184 8.59273 5.0521 8.3019C4.699 8.77781 4.45454 9.3066 4.29157 9.9147C4.1286 10.4964 4.04712 11.1838 4.04712 11.9241V13.3518H4.72616V11.9241C4.72616 11.2367 4.80765 10.6286 4.94346 10.0998C5.10643 9.43879 5.40521 8.85713 5.86696 8.38122Z" fill="white"/>
<path d="M9.80587 7.56172H9.58857C8.8552 7.56172 8.23048 7.64104 7.7144 7.82611C7.11684 8.01119 6.62793 8.32846 6.24766 8.72505C5.8674 9.12164 5.59578 9.65043 5.43281 10.2321C5.297 10.7344 5.24268 11.3161 5.24268 11.9507V13.3784H5.92172V11.9507C5.92172 11.369 5.97605 10.8402 6.08469 10.3907C6.2205 9.91483 6.4378 9.4918 6.73658 9.17452C7.03536 8.85725 7.44279 8.59286 7.9317 8.43422C8.39345 8.27558 8.93669 8.19626 9.58857 8.19626H9.80587C10.1861 8.19626 10.9738 8.19626 11.0281 8.19626V7.53528C10.9738 7.56172 10.2133 7.56172 9.80587 7.56172Z" fill="white"/>
<path d="M8.01314 8.90997C7.60571 9.04217 7.27977 9.25368 7.03531 9.51808C6.79085 9.78247 6.60072 10.1262 6.49207 10.5228C6.38343 10.9194 6.3291 11.4217 6.3291 11.9505V13.4047H7.00815V11.9505C7.00815 11.4482 7.06247 11.0251 7.14396 10.6814C7.22544 10.3906 7.36125 10.1262 7.52422 9.94111C7.68719 9.75603 7.93165 9.62384 8.23043 9.51808C8.58354 9.41232 8.99096 9.35944 9.5342 9.35944H10.9738V8.69846H9.5342C8.90948 8.69846 8.42056 8.75133 8.01314 8.90997Z" fill="white"/>
<path d="M1.22247 8.19614H1.43976C2.17313 8.19614 2.79785 8.11682 3.31393 7.93175C3.91149 7.74667 4.4004 7.4294 4.78067 7.03281C5.16093 6.63621 5.43255 6.10743 5.59552 5.52576C5.73133 5.02341 5.78566 4.44174 5.78566 3.8072V2.35303H5.13377V3.78076C5.13377 4.36242 5.07945 4.89121 4.9708 5.34068C4.83499 5.81659 4.6177 6.23962 4.31892 6.5569C4.02014 6.87417 3.61271 7.13856 3.12379 7.2972C2.66204 7.45584 2.11881 7.53515 1.46692 7.53515H1.24963C0.869361 7.53515 0.0816674 7.53515 0.0273438 7.53515V8.19614C0.0545056 8.19614 0.815037 8.19614 1.22247 8.19614Z" fill="white"/>
<path d="M3.01533 6.84773C3.42276 6.71553 3.7487 6.50402 3.99316 6.23962C4.23761 5.97523 4.42775 5.63152 4.53639 5.23492C4.64504 4.83833 4.69936 4.33598 4.69936 3.8072V2.35303H4.02032V3.8072C4.02032 4.30954 3.96599 4.73258 3.88451 5.07629C3.80302 5.36712 3.66721 5.63152 3.50424 5.81659C3.34127 6.00167 3.09681 6.13387 2.79803 6.23962C2.44493 6.34538 2.0375 6.39826 1.49427 6.39826H0.0546875V7.05925H1.49427C2.11899 7.03281 2.6079 6.97993 3.01533 6.84773Z" fill="white"/>
</svg>
