<svg width="65" height="13" viewBox="0 0 65 13" fill="none" xmlns="http://www.w3.org/2000/svg">
<path d="M3.50227 10.9059C2.8493 10.7023 2.28538 10.3533 1.86985 9.91705C1.45433 9.48082 1.15753 8.92825 0.979448 8.25935C0.831046 7.67771 0.742006 5.67102 0.742006 5.67102H0C0 5.67102 0.0890407 7.79404 0.267122 8.43385C0.474884 9.21907 0.831047 9.85889 1.30593 10.3824C1.81049 10.9349 2.49314 11.3421 3.26483 11.6038C3.91779 11.8074 4.68948 11.9237 5.60956 11.9237V11.1676C4.77852 11.1967 4.09587 11.1094 3.50227 10.9059Z" fill="white"/>
<path d="M3.94696 9.62638C3.53145 9.48097 3.1753 9.27739 2.93786 9.01565C2.67075 8.72483 2.49267 8.37584 2.37395 7.9396C2.25523 7.47428 2.19588 5.70026 2.19588 5.70026H1.39453C1.39453 5.70026 1.45389 7.59061 1.60229 8.1141C1.75068 8.66666 1.98812 9.13198 2.34427 9.51005C2.70043 9.88812 3.14562 10.1499 3.70953 10.3244C4.24376 10.4989 4.86702 10.557 5.60901 10.5861V9.82996C4.92638 9.82996 4.39215 9.77179 3.94696 9.62638Z" fill="white"/>
<path d="M4.36309 8.31752C4.18501 8.25936 4.03661 8.17211 3.94757 8.08486C3.85853 7.96853 3.76949 7.79404 3.71013 7.56138C3.62109 7.21239 3.56173 5.67102 3.56173 5.67102H2.79004C2.79004 5.67102 2.8494 7.32872 2.96812 7.73587C3.05716 8.08486 3.20556 8.3466 3.38364 8.55018C3.56173 8.75376 3.79917 8.89917 4.12565 8.98641C4.51149 9.10274 5.01606 9.16091 5.60966 9.16091V8.40477C5.07542 8.46293 4.65989 8.40477 4.36309 8.31752Z" fill="white"/>
<path d="M8.87449 0.988802C9.52746 1.19238 10.0914 1.54137 10.5069 2.00669C10.9224 2.44292 11.2192 2.99549 11.3973 3.66438C11.5457 4.24603 11.6348 4.91493 11.6348 5.70015V7.50326H12.4064V5.70015C12.4064 4.85676 12.3174 4.1297 12.1393 3.48989C11.9316 2.73375 11.5754 2.06485 11.1005 1.54137C10.5959 0.988802 9.9133 0.581648 9.11193 0.319906C8.45897 0.11633 7.68728 0.0290824 6.79688 0V0.756143C7.59824 0.72706 8.28089 0.814307 8.87449 0.988802Z" fill="white"/>
<path d="M8.45858 2.29743C8.87411 2.44284 9.23027 2.64642 9.49739 2.90816C9.76452 3.19898 9.9426 3.54797 10.0613 3.98421C10.18 4.44953 10.2394 5.03117 10.2394 5.67099V7.4741H11.0111V5.67099C11.0111 4.94393 10.9517 4.3332 10.8033 3.80971C10.6549 3.25715 10.4175 2.79183 10.0613 2.41376C9.70516 2.03569 9.25995 1.77394 8.69603 1.59945C8.16178 1.42496 7.56818 1.36679 6.82617 1.36679V2.12293C7.44946 2.09385 8.01338 2.15202 8.45858 2.29743Z" fill="white"/>
<path d="M8.04306 3.60621C8.25082 3.66437 8.36954 3.75162 8.45858 3.83887C8.57731 3.9552 8.63667 4.12969 8.69603 4.36235C8.78507 4.71134 8.84443 5.17666 8.84443 5.70014V7.50325H9.61611V5.70014C9.61611 5.08941 9.55675 4.59501 9.43803 4.18786C9.34899 3.83887 9.20059 3.57712 9.02251 3.37355C8.84443 3.16997 8.60699 3.02456 8.2805 2.93731C7.89466 2.82098 7.3901 2.76282 6.82617 2.76282V3.4608C7.30106 3.4608 7.71658 3.51896 8.04306 3.60621Z" fill="white"/>
<path d="M17.7483 12.0983H15.6113V4.76953C15.6113 3.57715 15.9675 2.70467 16.6501 2.18119C17.3328 1.65771 18.431 1.42505 19.8556 1.42505C21.3693 1.42505 22.4378 1.80312 23.0611 2.58835C23.6547 1.80312 24.7232 1.42505 26.2665 1.42505C27.7209 1.42505 28.7894 1.68679 29.5017 2.21027C30.214 2.73376 30.5702 3.60623 30.5702 4.79861V12.1274H28.4332V5.20576C28.4332 4.44962 28.3145 3.92614 28.077 3.60623C27.8396 3.28632 27.1866 3.16999 26.2665 3.16999C25.4058 3.16999 24.8419 3.31541 24.5748 3.57715C24.3076 3.83889 24.1592 4.30421 24.1592 4.94402V12.1274H22.0223V5.20576C22.0223 4.44962 21.9035 3.92614 21.6661 3.60623C21.4287 3.28632 20.8054 3.16999 19.8556 3.16999C18.9355 3.16999 18.3716 3.31541 18.1045 3.63531C17.8373 3.95522 17.7483 4.4787 17.7483 5.23484V12.0983Z" fill="white"/>
<path d="M33.7763 2.47211C34.5183 1.77413 35.7945 1.39606 37.605 1.39606C39.4155 1.39606 40.6918 1.74505 41.4338 2.47211C42.1758 3.17008 42.5616 4.47879 42.5616 6.36915V7.47428C42.5616 9.36464 42.1758 10.6443 41.4338 11.3713C40.6918 12.0693 39.4155 12.4474 37.605 12.4474C35.7945 12.4474 34.5183 12.0984 33.7763 11.3713C33.0343 10.6733 32.6484 9.36464 32.6484 7.47428V6.36915C32.6484 4.47879 33.0343 3.17008 33.7763 2.47211ZM40.3356 7.47428V6.36915C40.3356 4.97319 40.1575 4.10072 39.8311 3.72265C39.4749 3.34458 38.7329 3.141 37.605 3.141C36.4475 3.141 35.7055 3.34458 35.379 3.72265C35.0525 4.10072 34.8745 5.00228 34.8745 6.36915V7.47428C34.8745 8.87024 35.0525 9.74271 35.379 10.1208C35.7055 10.4989 36.4772 10.7024 37.605 10.7024C38.7626 10.7024 39.5046 10.4989 39.8311 10.1208C40.1575 9.74271 40.3356 8.87024 40.3356 7.47428Z" fill="white"/>
<path d="M43.5703 1.74506H45.9447L48.8237 9.82997L51.7917 1.74506H54.0178L49.9219 12.1275H47.6365L43.5703 1.74506Z" fill="white"/>
<path d="M62.8622 7.67777H57.2229C57.2229 8.81198 57.3713 9.53904 57.6978 9.88803C57.9946 10.237 58.7069 10.4115 59.7754 10.4115C61.4969 10.4115 62.7731 10.4115 63.6338 10.3824L63.2777 12.1274C62.5357 12.1565 61.3485 12.1565 59.7754 12.1565C58.8256 12.1565 58.054 12.0401 57.4307 11.8366C56.8074 11.633 56.3325 11.3131 55.9763 10.8768C55.6499 10.4406 55.4124 9.9462 55.2937 9.42271C55.175 8.89923 55.0859 8.23033 55.0859 7.47419V6.33998C55.0859 4.68228 55.4124 3.43174 56.0654 2.61743C56.7183 1.80312 57.9946 1.42505 59.8645 1.42505C61.5562 1.42505 62.7138 1.77404 63.3667 2.47202C64.0197 3.16999 64.3462 4.10063 64.3462 5.26393V5.55475C64.3462 6.45631 64.2274 7.03795 64.0197 7.32878C63.8119 7.56144 63.4261 7.67777 62.8622 7.67777ZM59.7754 3.08275C58.7069 3.08275 57.9946 3.25724 57.6978 3.63531C57.401 4.01338 57.2229 4.82769 57.2229 6.04915H62.3279V5.38026C62.3279 4.4787 62.1498 3.86797 61.7937 3.54806C61.4375 3.22816 60.7845 3.08275 59.7754 3.08275Z" fill="white"/>
</svg>
