<svg width="20" height="16" viewBox="0 0 20 16" fill="none" xmlns="http://www.w3.org/2000/svg">
<path d="M18.9357 8.70969H16.6519L14.4124 0.714974C14.3016 0.281657 13.9024 0 13.4368 0C12.9933 0 12.5942 0.303322 12.4612 0.73664L9.4235 11.6562L6.60754 4.15985C6.45233 3.7482 6.05322 3.48821 5.60976 3.50987C5.1663 3.53154 4.78936 3.8132 4.67849 4.22485L3.41463 8.70969H1.01996C0.465632 8.70969 0 9.143 0 9.68465C0 10.2263 0.443459 10.6813 1.01996 10.6813H4.21286C4.65632 10.6813 5.05543 10.378 5.18847 9.96631L5.80931 7.73472L8.62528 15.2311C8.78049 15.6428 9.1796 15.9028 9.62306 15.8811C10.0665 15.8594 10.4435 15.5778 10.5543 15.1661L13.4812 4.72316L14.9446 9.96631C15.0554 10.3996 15.4545 10.6813 15.9202 10.6813H18.98C19.5344 10.6813 20 10.248 20 9.70632C19.9557 9.143 19.5122 8.70969 18.9357 8.70969Z" fill="white"/>
</svg>
