<svg width="459" height="153" viewBox="0 0 459 153" fill="none" xmlns="http://www.w3.org/2000/svg">
<path d="M0 35.4V11.2C0 9.2 0.299998 7.4 0.899998 6C1.5 4.6 2.4 3.4 3.4 2.5C4.5 1.6 5.8 0.999999 7.4 0.599999C8.9 0.199999 10.7 0 12.6 0C14.7 0 16.3 0 17.4 0C18.5 0 19.4 -5.73695e-07 20.2 0.0999994L19 6C19 6 18.7 6 18.4 6C18 6 17.5 6 17 6C16.4 6 15.8 6 15.2 6C14.6 6 13.9 6 13.3 6C11.8 6 10.6 6.1 9.7 6.4C8.8 6.7 8.2 7.1 7.8 7.7C7.4 8.3 7.1 9 7 9.9C6.9 10.8 6.8 11.7 6.8 12.8V35.4H0Z" transform="translate(148.2 45.9001) scale(3)" fill="#ffffff"/>
<path d="M8.6 4.5C8.6 6.1 8.3 7.2 7.6 7.9C6.9 8.6 5.8 9 4.3 9C2.8 9 1.7 8.6 1 7.9C0.3 7.2 0 6 0 4.5C0 2.9 0.3 1.8 1 1.1C1.7 0.4 2.8 0 4.3 0C5.8 0 6.9 0.4 7.6 1.1C8.3 1.7 8.6 2.9 8.6 4.5ZM1 14.9H7.8V50.1H1V14.9Z" transform="translate(218.7 1.5) scale(3)" fill="#ffffff"/>
<path d="M15 50.7C12.2 50.7 9.8 50.4 7.8 49.8C5.9 49.2 4.3 48.2 3.2 46.8C2 45.4 1.2 43.7 0.699997 41.5C0.199997 39.3 0 36.7 0 33.6V31C0 28.2 0.199998 25.8 0.599998 23.7C0.999998 21.6 1.8 19.9 2.9 18.5C4 17.1 5.5 16 7.5 15.3C9.4 14.6 11.8 14.2 14.8 14.2C16.9 14.2 18.7 14.4 20.3 14.9C21.9 15.4 23.1 16 23.9 16.8V0H30.7V44.8C30.7 46.9 30.2 48.4 29.3 49.3C28.4 50.2 26.7 50.7 24.1 50.7H15ZM23.9 44.8V28.9C23.9 27.1 23.8 25.7 23.5 24.5C23.2 23.4 22.8 22.5 22.1 21.8C21.5 21.1 20.6 20.7 19.5 20.5C18.4 20.3 17 20.2 15.2 20.2C13.4 20.2 11.9 20.3 10.8 20.6C9.7 20.9 8.9 21.4 8.3 22.2C7.7 23 7.3 24.1 7.1 25.5C6.9 26.9 6.8 28.7 6.8 31V33.6C6.8 36 6.9 37.9 7.1 39.3C7.3 40.8 7.7 41.9 8.3 42.7C8.9 43.5 9.8 44.1 10.9 44.3C12 44.6 13.5 44.7 15.4 44.7H23.9V44.8Z" transform="translate(262.2) scale(3)" fill="#ffffff"/>
<path d="M6.8 21.4C6.8 23.3 6.90001 24.9 7.10001 26C7.30001 27.2 7.7 28.1 8.3 28.8C8.9 29.5 9.7 29.9 10.7 30.2C11.7 30.5 13.1 30.6 14.8 30.6C16 30.6 17.6 30.6 19.5 30.6C21.4 30.6 23.9 30.6 27 30.5L25.8 36.4C24.5 36.4 23.3 36.5 22.4 36.5C21.5 36.5 20.6 36.5 19.8 36.5C19 36.5 18.2 36.5 17.4 36.5C16.6 36.5 15.7 36.5 14.8 36.5C11.7 36.5 9.3 36.1 7.3 35.4C5.4 34.7 3.9 33.6 2.8 32.2C1.7 30.8 0.999998 29.1 0.599998 27.2C0.199998 25.2 0 23 0 20.6V16.7C0 14.1 0.199998 11.8 0.599998 9.7C0.999998 7.6 1.8 5.9 2.9 4.5C4 3.1 5.5 2 7.5 1.2C9.5 0.4 12 0 15.1 0C18 0 20.3 0.399999 22.2 1.1C24 1.8 25.5 2.8 26.5 4C27.6 5.2 28.3 6.6 28.7 8.2C29.1 9.8 29.3 11.4 29.3 13.1V14.1C29.3 15.7 29.2 17 29 18C28.8 19 28.5 19.7 28.2 20.2C27.8 20.7 27.3 21.1 26.7 21.2C26.1 21.4 25.4 21.4 24.6 21.4H6.8ZM14.8 5.7C13.1 5.7 11.7 5.8 10.7 6.1C9.7 6.4 8.9 6.9 8.3 7.6C7.7 8.3 7.30001 9.4 7.10001 10.7C6.90001 12 6.8 13.7 6.8 15.8H22.9V13.5C22.9 12 22.8 10.7 22.5 9.7C22.3 8.7 21.8 7.9 21.2 7.3C20.6 6.7 19.7 6.3 18.7 6C17.7 5.8 16.4 5.7 14.8 5.7Z" transform="translate(370.5 42.9001) scale(3)" fill="#ffffff"/>
<path d="M20.1 25C22 25 23.5 24.9 24.7 24.5C25.8 24.1 26.6 23.7 27.1 23C27.7 22.3 28.1 21.5 28.4 20.4C28.7 19.1 28.9 17.5 28.9 15.6V9.5C28.9 7.6 28.7 6 28.4 4.6C28.1 3.5 27.7 2.6 27.1 2C26.5 1.4 25.8 0.9 24.7 0.6C23.5 0.2 21.9 0 19.9 0C18 0 16.4 0.2 15.2 0.6C14.2 1 13.4 1.4 12.8 2.1C12.2 2.8 11.8 3.6 11.5 4.7C11.2 6 11 7.6 11 9.5V10.9V20.7H13.5V9.5C13.5 7.9 13.6 6.5 13.9 5.3C14.1 4.6 14.3 4.1 14.6 3.8C14.9 3.5 15.4 3.2 16 3C17 2.7 18.3 2.5 19.9 2.5C21.6 2.5 22.9 2.7 23.9 3C24.5 3.2 24.9 3.4 25.2 3.7C25.5 4 25.8 4.6 26 5.3C26.3 6.4 26.4 7.8 26.4 9.5V15.6C26.4 17.3 26.3 18.7 26 19.8C25.8 20.5 25.6 21 25.3 21.3C25 21.6 24.5 21.9 23.9 22.1C22.9 22.4 19.4 22.6 19.2 22.6H0V25H18.9C18.9 25 19.8 25 20.1 25Z" transform="translate(0 51) scale(3)" fill="#ffffff"/>
<path d="M30.2 25.2C29.9 26.6 29.3 27.7 28.5 28.6C27.7 29.5 26.6 30.1 25.3 30.5C23.9 31 22.1 31.2 20 31.2C19.6 31.2 19.4 31.2 19.4 31.2H0V33.7H19.4C20.2 33.7 19.9 33.7 20.3 33.7C22.7 33.7 24.4 33.5 26.1 32.9C27.8 32.3 29.3 31.4 30.4 30.2C31.5 29 32.3 27.5 32.7 25.8C33.1 24.1 33.3 22.2 33.3 19.9V13.8C33.3 11.5 33.1 9.5 32.6 7.8C32.1 6 31.4 4.5 30.3 3.4C29.2 2.2 27.8 1.3 26 0.799999C24.3 0.299999 22.3 0 19.9 0C17.5 0 15.5 0.299999 13.8 0.799999C12.1 1.4 10.6 2.3 9.6 3.5C8.5 4.7 7.7 6.2 7.3 8C6.9 9.7 6.7 11.7 6.7 13.9V15.3V25.1H9.2V21.4V13.9C9.2 11.9 9.4 10.1 9.8 8.7C10.1 7.3 10.7 6.2 11.5 5.3C12.3 4.4 13.4 3.8 14.7 3.3C16.1 2.8 17.8 2.6 20 2.6C22.1 2.6 23.9 2.8 25.3 3.3C26.6 3.7 27.7 4.4 28.5 5.2C29.3 6.1 29.9 7.2 30.2 8.6C30.6 10.1 30.8 11.9 30.8 13.9V20C30.8 22 30.6 23.7 30.2 25.2Z" transform="translate(0 37.7999) scale(3)" fill="#ffffff"/>
<path d="M36.8 11.2C36.2 8.7 35 6.6 33.5 4.9C31.9 3.1 29.8 1.8 27.3 1C25.2 0.3 22.8 0 19.9 0C17 0 14.6 0.299999 12.4 1.1C10 1.9 7.9 3.2 6.4 4.9C4.8 6.6 3.7 8.7 3.1 11.2C2.6 13.2 2.3 15.6 2.3 18.1V19.5V24.2V29.3H4.8V24.2V18.1C4.8 15.7 5 13.6 5.5 11.8C6 9.7 6.9 8 8.2 6.6C9.5 5.2 11.2 4.1 13.2 3.5C15.1 2.9 17.2 2.6 19.9 2.6C22.5 2.6 24.7 2.9 26.5 3.5C28.6 4.2 30.3 5.2 31.6 6.6C32.9 8 33.8 9.7 34.3 11.8C34.8 13.6 35 15.8 35 18.2V24.3C35 26.7 34.8 28.8 34.3 30.6C33.8 32.7 32.8 34.4 31.6 35.8C30.3 37.2 28.6 38.3 26.6 38.9C24.7 39.5 22.9 39.8 20.2 39.8C19.8 39.8 18.8 39.8 18.8 39.8H0V42.3H18.9C19.1 42.3 19.6 42.3 20 42.3C22.9 42.3 25.3 42 27.4 41.3C29.8 40.5 31.9 39.2 33.5 37.5C35.1 35.8 36.2 33.7 36.8 31.2C37.3 29.2 37.6 26.8 37.6 24.2V18.1C37.7 15.7 37.4 13.3 36.8 11.2Z" transform="translate(0 24.2999) scale(3)" fill="#ffffff"/>
</svg>
