<svg width="51" height="15" viewBox="0 0 51 15" fill="none" xmlns="http://www.w3.org/2000/svg">
<path d="M22.8569 14.0626V7.54013C22.8569 7.00109 22.9359 6.51595 23.094 6.13862C23.252 5.76129 23.4891 5.43786 23.7525 5.19529C24.0422 4.95272 24.3846 4.79101 24.806 4.6832C25.2011 4.57539 25.6752 4.52148 26.1756 4.52148C26.7287 4.52148 27.1502 4.52148 27.4399 4.52148C27.7296 4.52148 27.9667 4.52148 28.1774 4.54844L27.8613 6.13862C27.8613 6.13862 27.7823 6.13862 27.7033 6.13862C27.5979 6.13862 27.4662 6.13862 27.3345 6.13862C27.1765 6.13862 27.0185 6.13862 26.8604 6.13862C26.7024 6.13862 26.518 6.13862 26.36 6.13862C25.9649 6.13862 25.6488 6.16557 25.4118 6.24643C25.1747 6.32728 25.0167 6.43509 24.9114 6.59681C24.806 6.75852 24.727 6.94718 24.7006 7.18975C24.6743 7.43232 24.648 7.67489 24.648 7.97137V14.0626H22.8569Z" fill="#080808"/>
<path d="M31.3116 1.74605C31.3116 2.17729 31.2326 2.47376 31.0483 2.66243C30.8639 2.85109 30.5742 2.9589 30.1791 2.9589C29.784 2.9589 29.4943 2.85109 29.3099 2.66243C29.1255 2.47376 29.0465 2.15034 29.0465 1.74605C29.0465 1.31482 29.1255 1.01834 29.3099 0.829678C29.4943 0.641012 29.784 0.533203 30.1791 0.533203C30.5742 0.533203 30.8639 0.641012 31.0483 0.829678C31.2326 0.991391 31.3116 1.31482 31.3116 1.74605ZM29.3099 4.54909H31.1009V14.0363H29.3099V4.54909Z" fill="#080808"/>
<path d="M36.8164 14.0632C36.0789 14.0632 35.4468 13.9824 34.92 13.8206C34.4196 13.6589 33.9982 13.3894 33.7084 13.0121C33.3924 12.6347 33.1817 12.1766 33.05 11.5836C32.9183 10.9907 32.8656 10.2899 32.8656 9.45438V8.75363C32.8656 7.99896 32.9183 7.35211 33.0236 6.78612C33.129 6.22012 33.3397 5.76193 33.6294 5.3846C33.9192 5.00727 34.3142 4.71079 34.841 4.52213C35.3414 4.33346 35.9736 4.22565 36.7637 4.22565C37.3169 4.22565 37.7909 4.27956 38.2124 4.41432C38.6338 4.54908 38.9499 4.71079 39.1606 4.92641V0.398438H40.9516V12.473C40.9516 13.039 40.8199 13.4433 40.5829 13.6859C40.3458 13.9285 39.8981 14.0632 39.2132 14.0632H36.8164ZM39.1606 12.473V8.18763C39.1606 7.70249 39.1342 7.32516 39.0552 7.00173C38.9762 6.70526 38.8708 6.46269 38.6865 6.27402C38.5284 6.08536 38.2914 5.97755 38.0017 5.92364C37.7119 5.86974 37.3432 5.84279 36.8691 5.84279C36.395 5.84279 35.9999 5.86974 35.7102 5.9506C35.4205 6.03145 35.2097 6.16621 35.0517 6.38183C34.8937 6.59745 34.7883 6.89392 34.7357 7.27126C34.683 7.64859 34.6566 8.13373 34.6566 8.75363V9.45438C34.6566 10.1012 34.683 10.6133 34.7357 10.9907C34.7883 11.3949 34.8937 11.6914 35.0517 11.907C35.2097 12.1227 35.4468 12.2844 35.7365 12.3383C36.0263 12.4191 36.4213 12.4461 36.9218 12.4461H39.1606V12.473Z" fill="#080808"/>
<path d="M44.1651 10.0197C44.1651 10.5318 44.1914 10.9631 44.2441 11.2595C44.2968 11.583 44.4021 11.8255 44.5601 12.0142C44.7182 12.2029 44.9289 12.3107 45.1923 12.3915C45.4557 12.4724 45.8244 12.4993 46.2722 12.4993C46.5882 12.4993 47.0096 12.4993 47.5101 12.4993C48.0105 12.4993 48.669 12.4993 49.4855 12.4724L49.1694 14.0626C48.827 14.0626 48.511 14.0895 48.2739 14.0895C48.0369 14.0895 47.7998 14.0895 47.5891 14.0895C47.3784 14.0895 47.1677 14.0895 46.957 14.0895C46.7463 14.0895 46.5092 14.0895 46.2722 14.0895C45.4557 14.0895 44.8235 13.9817 44.2968 13.793C43.7963 13.6044 43.4012 13.3079 43.1115 12.9306C42.8218 12.5532 42.6374 12.0951 42.5321 11.583C42.4267 11.0439 42.374 10.451 42.374 9.80411V8.75297C42.374 8.05222 42.4267 7.43232 42.5321 6.86632C42.6374 6.30032 42.8481 5.84213 43.1378 5.4648C43.4276 5.08747 43.8227 4.791 44.3494 4.57538C44.8762 4.35976 45.5347 4.25195 46.3512 4.25195C47.115 4.25195 47.7208 4.35976 48.2212 4.54843C48.6953 4.73709 49.0904 5.00662 49.3538 5.33004C49.6435 5.65347 49.8279 6.0308 49.9332 6.46204C50.0386 6.89327 50.0913 7.32451 50.0913 7.78269V8.05222C50.0913 8.48345 50.0649 8.83383 50.0123 9.10335C49.9596 9.37288 49.8806 9.56154 49.8016 9.6963C49.6962 9.83106 49.5645 9.93887 49.4065 9.96583C49.2484 10.0197 49.0641 10.0197 48.8534 10.0197H44.1651ZM46.2722 5.78823C45.8244 5.78823 45.4557 5.81518 45.1923 5.89604C44.9289 5.9769 44.7182 6.11166 44.5601 6.30032C44.4021 6.48899 44.2968 6.78546 44.2441 7.13584C44.1914 7.48622 44.1651 7.94441 44.1651 8.5104H48.4056V7.8905C48.4056 7.48622 48.3793 7.13584 48.3002 6.86632C48.2476 6.5968 48.1159 6.38118 47.9578 6.21947C47.7998 6.05775 47.5628 5.94994 47.2994 5.86909C47.036 5.81518 46.6936 5.78823 46.2722 5.78823Z" fill="#080808"/>
<path d="M6.24521 11.3119C6.83555 11.3119 7.30161 11.2801 7.67446 11.1529C8.01624 11.0257 8.2648 10.8985 8.42015 10.676C8.60658 10.4534 8.73086 10.1991 8.82407 9.84933C8.91728 9.436 8.97943 8.92729 8.97943 8.3232V6.38374C8.97943 5.77965 8.91728 5.27094 8.82407 4.82582C8.73086 4.47608 8.60658 4.18993 8.42015 3.99917C8.23373 3.8084 8.01624 3.64943 7.67446 3.55405C7.30161 3.42687 6.80448 3.36328 6.18306 3.36328C5.59272 3.36328 5.09559 3.42687 4.72274 3.55405C4.41204 3.68122 4.16347 3.8084 3.97705 4.03096C3.79062 4.25352 3.66634 4.50788 3.57313 4.85762C3.47992 5.27094 3.41777 5.77965 3.41777 6.38374V6.82887V9.94471H4.19454V6.38374C4.19454 5.87503 4.22561 5.42991 4.31882 5.04838C4.38097 4.82582 4.44311 4.66685 4.53632 4.57147C4.62953 4.47608 4.78488 4.3807 4.97131 4.31711C5.28202 4.22173 5.68593 4.15814 6.18306 4.15814C6.71127 4.15814 7.11519 4.22173 7.42589 4.31711C7.61232 4.3807 7.7366 4.44429 7.82981 4.53967C7.92302 4.63506 8.01624 4.82582 8.07838 5.04838C8.17159 5.39812 8.20266 5.84324 8.20266 6.38374V8.3232C8.20266 8.8637 8.17159 9.30882 8.07838 9.65856C8.01624 9.88112 7.95409 10.0401 7.86088 10.1355C7.76767 10.2309 7.61232 10.3262 7.42589 10.3898C7.11519 10.4852 6.02771 10.5488 5.96557 10.5488H0V11.3119H5.87236C5.87236 11.3119 6.15199 11.3119 6.24521 11.3119Z" fill="#080808"/>
<path d="M9.38334 9.97702C9.29013 10.4221 9.10371 10.7719 8.85514 11.058C8.60658 11.3442 8.2648 11.5349 7.86088 11.6621C7.42589 11.8211 6.86662 11.8847 6.21414 11.8847C6.08985 11.8847 6.02771 11.8847 6.02771 11.8847H0V12.6795H6.02771C6.27628 12.6795 6.18306 12.6795 6.30735 12.6795C7.05304 12.6795 7.58124 12.616 8.10945 12.4252C8.63765 12.2344 9.10371 11.9483 9.44549 11.5667C9.78726 11.1852 10.0358 10.7083 10.1601 10.1678C10.2844 9.62728 10.3465 9.02319 10.3465 8.29192V6.35246C10.3465 5.62119 10.2844 4.98531 10.129 4.4448C9.97369 3.8725 9.75619 3.39559 9.41441 3.04585C9.07264 2.66432 8.63765 2.37817 8.07838 2.2192C7.55017 2.06023 6.92876 1.96484 6.18306 1.96484C5.43737 1.96484 4.81595 2.06023 4.28775 2.2192C3.75955 2.40996 3.29349 2.69611 2.98278 3.07765C2.64101 3.45918 2.39244 3.93609 2.26816 4.50839C2.14388 5.0489 2.08174 5.68478 2.08174 6.38426V6.82938V9.94523H2.8585V8.76883V6.38426C2.8585 5.74837 2.92064 5.17607 3.04493 4.73095C3.13814 4.28583 3.32456 3.93609 3.57313 3.64994C3.82169 3.36379 4.16347 3.17303 4.56739 3.01406C5.00238 2.85509 5.53058 2.7915 6.21414 2.7915C6.86662 2.7915 7.42589 2.85509 7.86088 3.01406C8.2648 3.14123 8.60658 3.36379 8.85514 3.61815C9.10371 3.9043 9.29013 4.25404 9.38334 4.69916C9.50763 5.17607 9.56977 5.74837 9.56977 6.38426V8.32371C9.56977 8.9596 9.50763 9.5001 9.38334 9.97702Z" fill="#080808"/>
<path d="M11.434 4.09417C11.2476 3.29931 10.8747 2.63163 10.4087 2.09113C9.91155 1.51883 9.25906 1.1055 8.4823 0.851147C7.82981 0.628586 7.08412 0.533203 6.18306 0.533203C5.28202 0.533203 4.53632 0.628586 3.85276 0.882941C3.10707 1.1373 2.45458 1.55062 1.98852 2.09113C1.49139 2.63163 1.14962 3.29931 0.963191 4.09417C0.807838 4.73006 0.714626 5.49312 0.714626 6.28798V6.7331V8.22744V9.84895H1.49139V8.22744V6.28798C1.49139 5.52492 1.55353 4.85723 1.70889 4.28494C1.86424 3.61725 2.14388 3.07675 2.5478 2.63163C2.95171 2.18651 3.47992 1.83677 4.10133 1.64601C4.69167 1.45524 5.34416 1.35986 6.18306 1.35986C6.9909 1.35986 7.67446 1.45524 8.23373 1.64601C8.88621 1.86857 9.41442 2.18651 9.81833 2.63163C10.2223 3.07675 10.5019 3.61725 10.6572 4.28494C10.8126 4.85723 10.8747 5.55671 10.8747 6.31977V8.25923C10.8747 9.02229 10.8126 9.68998 10.6572 10.2623C10.5019 10.93 10.1912 11.4705 9.81833 11.9156C9.41442 12.3607 8.88621 12.7104 8.2648 12.9012C7.67446 13.092 7.11519 13.1874 6.27628 13.1874C6.15199 13.1874 5.84129 13.1874 5.84129 13.1874H0V13.9822H5.87236C5.9345 13.9822 6.08985 13.9822 6.21414 13.9822C7.11519 13.9822 7.86088 13.8868 8.51337 13.6643C9.25906 13.4099 9.91155 12.9966 10.4087 12.4561C10.9058 11.9156 11.2476 11.2479 11.434 10.453C11.5894 9.81715 11.6826 9.05409 11.6826 8.22744V6.28798C11.7136 5.52492 11.6204 4.76185 11.434 4.09417Z" fill="#080808"/>
</svg>
