<?xml version="1.0" encoding="utf-8"?>
<!-- Generator: Adobe Illustrator 17.0.0, SVG Export Plug-In . SVG Version: 6.00 Build 0)  -->
<!DOCTYPE svg PUBLIC "-//W3C//DTD SVG 1.1//EN" "http://www.w3.org/Graphics/SVG/1.1/DTD/svg11.dtd">
<svg version="1.1" id="Layer_1" xmlns="http://www.w3.org/2000/svg" xmlns:xlink="http://www.w3.org/1999/xlink" x="0px" y="0px"
	 width="25px" height="25px" viewBox="0 0 25 25" enable-background="new 0 0 25 25" xml:space="preserve">
<g>
	<g>
		<defs>
			<rect id="SVGID_1_" width="25" height="25"/>
		</defs>
		<clipPath id="SVGID_2_">
			<use xlink:href="#SVGID_1_"  overflow="visible"/>
		</clipPath>
		<polygon clip-path="url(#SVGID_2_)" points="18.47,20.53 16.25,18.31 16.25,15 17.75,15 17.75,17.689 19.531,19.469 		"/>
		<rect x="9.75" y="5.39" clip-path="url(#SVGID_2_)" width="4" height="1.5"/>
		<rect x="7" y="3" clip-path="url(#SVGID_2_)" width="1.5" height="4"/>
		<rect x="15" y="3" clip-path="url(#SVGID_2_)" width="1.5" height="4"/>
		<g clip-path="url(#SVGID_2_)">
			<defs>
				<rect id="SVGID_3_" width="25" height="25"/>
			</defs>
			<clipPath id="SVGID_4_">
				<use xlink:href="#SVGID_3_"  overflow="visible"/>
			</clipPath>
			<path clip-path="url(#SVGID_4_)" d="M19.75,12.952V5.39h-2v1.5h0.5v2.36h-13V6.89h0.5v-1.5h-2v14.72h7.906
				c0.844,2.128,2.919,3.64,5.344,3.64c3.17,0,5.75-2.58,5.75-5.75C22.75,15.825,21.536,13.929,19.75,12.952 M11.283,18.61H5.25
				v-7.86h13v1.641c-0.403-0.09-0.82-0.141-1.25-0.141c-3.17,0-5.75,2.58-5.75,5.75C11.25,18.206,11.262,18.41,11.283,18.61
				 M17,22.25c-2.344,0-4.25-1.906-4.25-4.25s1.906-4.25,4.25-4.25s4.25,1.906,4.25,4.25S19.344,22.25,17,22.25"/>
		</g>
	</g>
</g>
</svg>
