<svg width="20" height="22" viewBox="0 0 20 22" fill="none" xmlns="http://www.w3.org/2000/svg">
<g clip-path="url(#clip0)">
<path d="M19.2415 9.79829H16.1544C15.8261 8.67609 14.7882 7.85107 13.5595 7.85107C12.3309 7.85107 11.293 8.67609 10.9647 9.79829H0.754048C0.337104 9.79829 0 10.1354 0 10.5523C0 10.9693 0.337104 11.3064 0.754048 11.3064H10.9692C11.2974 12.4286 12.3353 13.2536 13.564 13.2536C14.7926 13.2536 15.8306 12.4286 16.1588 11.3064H19.246C19.6629 11.3064 20 10.9693 20 10.5523C20 10.1354 19.6585 9.79829 19.2415 9.79829ZM13.564 11.7455C12.9075 11.7455 12.3708 11.2088 12.3708 10.5523C12.3708 9.89587 12.9075 9.35917 13.564 9.35917C14.2204 9.35917 14.7572 9.89587 14.7572 10.5523C14.7572 11.2088 14.2204 11.7455 13.564 11.7455Z" fill="black"/>
<path d="M19.2415 17.6491H9.02639C8.69816 16.4959 7.66024 15.7019 6.43158 15.7019C5.20293 15.7019 4.165 16.4959 3.84121 17.6491H0.754048C0.337104 17.6491 0 17.9862 0 18.4032C0 18.8201 0.337104 19.1572 0.754048 19.1572H3.84121C4.16944 20.2661 5.20736 21.1044 6.43602 21.1044C7.66467 21.1044 8.70259 20.2661 9.03083 19.1572H19.246C19.6629 19.1572 20 18.8201 20 18.4032C20 17.9862 19.6585 17.6491 19.2415 17.6491ZM6.43158 19.5875C5.77512 19.5875 5.23841 19.0508 5.23841 18.3943C5.23841 17.7378 5.77512 17.2011 6.43158 17.2011C7.08805 17.2011 7.62475 17.7378 7.62475 18.3943C7.62475 19.0508 7.09248 19.5875 6.43158 19.5875Z" fill="black"/>
<path d="M19.2415 1.94721H9.02639C8.69816 0.838322 7.66023 0 6.43158 0C5.20293 0 4.165 0.838322 3.84121 1.94721H0.754047C0.337104 1.94721 0 2.28432 0 2.70126C0 3.1182 0.337104 3.45531 0.754047 3.45531H3.84121C4.16944 4.60855 5.20736 5.40252 6.43602 5.40252C7.66467 5.40252 8.69816 4.60855 9.02639 3.45531H19.2415C19.6585 3.45531 19.9956 3.1182 19.9956 2.70126C19.9956 2.28432 19.6585 1.94721 19.2415 1.94721ZM6.43158 3.9033C5.77512 3.9033 5.23841 3.3666 5.23841 2.71013C5.23841 2.05367 5.77512 1.51696 6.43158 1.51696C7.08805 1.51696 7.62475 2.05367 7.62475 2.71013C7.62475 3.3666 7.09248 3.9033 6.43158 3.9033Z" fill="black"/>
</g>
<defs>
<clipPath id="clip0">
<rect width="20" height="21.1045" fill="white"/>
</clipPath>
</defs>
</svg>
