<svg width="20" height="17" viewBox="0 0 20 17" fill="none" xmlns="http://www.w3.org/2000/svg">
<path d="M16.7742 16.6566C16.6493 16.6566 16.5661 16.6162 16.4828 16.5355C16.3163 16.3741 16.3163 16.132 16.4828 15.9705C20.0624 12.5 20.0624 6.89064 16.4828 3.4201C12.9032 -0.0504439 7.07596 -0.0504439 3.49636 3.37974C-0.0416235 6.85028 -0.0416235 12.5 3.49636 15.9705C3.66285 16.132 3.66285 16.3741 3.49636 16.5355C3.32986 16.6969 3.08012 16.6969 2.91363 16.5355C1.04058 14.7195 0 12.2579 0 9.67514C0 7.09241 1.04058 4.67111 2.91363 2.81477C6.82622 -0.938256 13.153 -0.938256 17.0656 2.81477C20.9781 6.5678 20.9781 12.7421 17.0656 16.4952C16.9823 16.6162 16.8574 16.6566 16.7742 16.6566Z" transform="translate(0 0.0101318)" fill="white"/>
<path d="M2.08117 4.03551C0.915713 4.03551 0 3.1477 0 2.01776C0 0.887813 0.915713 0 2.08117 0C3.24662 0 4.16233 0.887813 4.16233 2.01776C4.16233 3.1477 3.24662 4.03551 2.08117 4.03551ZM2.08117 0.807103C1.37357 0.807103 0.832466 1.33172 0.832466 2.01776C0.832466 2.70379 1.37357 3.22841 2.08117 3.22841C2.78876 3.22841 3.32986 2.70379 3.32986 2.01776C3.32986 1.33172 2.78876 0.807103 2.08117 0.807103Z" transform="translate(7.90869 7.66748)" fill="white"/>
<path d="M5.40131 2.81543C5.35968 2.81543 5.27644 2.81543 5.23481 2.77508L0.240017 0.75732C0.0319004 0.67661 -0.0513462 0.43448 0.0319004 0.232704C0.115147 0.0309284 0.364887 -0.0497818 0.573003 0.0309284L5.5678 2.04868C5.77592 2.1294 5.85916 2.37153 5.77592 2.5733C5.73429 2.73472 5.5678 2.81543 5.40131 2.81543Z" transform="translate(3.04834 6.62769)" fill="white"/>
<path d="M2.4974 0.807102H0.416233C0.166493 0.807102 0 0.645682 0 0.403551C0 0.16142 0.166493 0 0.416233 0H2.4974C2.74714 0 2.91363 0.16142 2.91363 0.403551C2.91363 0.645682 2.74714 0.807102 2.4974 0.807102Z" transform="translate(0 9.28162)" fill="white"/>
<path d="M1.91467 2.25989C1.7898 2.25989 1.70656 2.21953 1.62331 2.13882L0.12487 0.686037C-0.0416233 0.564972 -0.0416233 0.282486 0.12487 0.121065C0.291363 -0.0403551 0.541103 -0.0403551 0.707596 0.121065L2.16441 1.53349C2.33091 1.69492 2.33091 1.93705 2.16441 2.09847C2.12279 2.21953 1.99792 2.25989 1.91467 2.25989Z" transform="translate(2.78857 2.70374)" fill="white"/>
<path d="M0.416233 2.82486C0.166493 2.82486 0 2.66344 0 2.42131V0.403551C0 0.16142 0.166493 0 0.416233 0C0.665973 0 0.832466 0.16142 0.832466 0.403551V2.42131C0.832466 2.66344 0.665973 2.82486 0.416233 2.82486Z" transform="translate(9.57324)" fill="white"/>
<path d="M0.416233 2.25989C0.291363 2.25989 0.208117 2.21953 0.12487 2.13882C-0.0416233 1.9774 -0.0416233 1.73527 0.12487 1.57385L1.62331 0.121065C1.7898 -0.0403551 2.03954 -0.0403551 2.20604 0.121065C2.37253 0.282486 2.37253 0.524616 2.20604 0.686037L0.707597 2.13882C0.62435 2.21953 0.541103 2.25989 0.416233 2.25989Z" transform="translate(14.8594 2.70374)" fill="white"/>
<path d="M2.4974 0.807102H0.416233C0.166493 0.807102 0 0.645682 0 0.403551C0 0.16142 0.166493 0 0.416233 0H2.4974C2.74714 0 2.91363 0.16142 2.91363 0.403551C2.91363 0.645682 2.74714 0.807102 2.4974 0.807102Z" transform="translate(17.0654 9.28162)" fill="white"/>
<path d="M1.91467 2.25989C1.7898 2.25989 1.70656 2.21953 1.62331 2.13882L0.12487 0.686038C-0.0416233 0.524617 -0.0416233 0.282486 0.12487 0.121065C0.291363 -0.0403551 0.541104 -0.0403551 0.707597 0.121065L2.16441 1.53349C2.33091 1.69491 2.33091 1.93705 2.16441 2.09847C2.12279 2.21953 1.99792 2.25989 1.91467 2.25989Z" transform="translate(14.8594 14.4067)" fill="white"/>
<path d="M0.416233 2.21953C0.291363 2.21953 0.208117 2.17918 0.12487 2.09847C-0.0416233 1.93705 -0.0416233 1.69491 0.12487 1.53349L1.58169 0.121065C1.74818 -0.0403551 1.99792 -0.0403551 2.16441 0.121065C2.33091 0.282486 2.33091 0.524617 2.16441 0.686038L0.707596 2.09847C0.624349 2.17918 0.541103 2.21953 0.416233 2.21953Z" transform="translate(2.78857 14.4471)" fill="white"/>
</svg>
