<svg width="1043" height="82" viewBox="0 0 1043 82" fill="none" xmlns="http://www.w3.org/2000/svg">
<mask id="mask0" mask-type="alpha" maskUnits="userSpaceOnUse" x="0" y="0" width="1043" height="82">
<rect x="0.0184326" y="0.128906" width="1042.98" height="81.3711" fill="#C2C1C0"/>
</mask>
<g mask="url(#mask0)">
<path d="M1048.97 -2.67578L657.772 36.9754L259.086 -67.7164L-251.173 70.9062" stroke="#2A2A2A" stroke-opacity="0.45" stroke-miterlimit="10"/>
<path d="M1049.61 1.94728L671.786 41.8336L257.375 -56.3542L-250.531 75.5292" stroke="#2A2A2A" stroke-opacity="0.45" stroke-miterlimit="10"/>
<path d="M1050.25 6.57032L685.906 46.6917L255.663 -44.9136L-249.889 80.1523" stroke="#2A2A2A" stroke-opacity="0.45" stroke-miterlimit="10"/>
<path d="M1050.9 11.1953L699.92 51.4734L253.952 -33.5495L-249.247 84.7773" stroke="#2A2A2A" stroke-opacity="0.45" stroke-miterlimit="10"/>
<path d="M1051.54 15.8164L714.04 56.3296L252.24 -22.1892L-248.605 89.3984" stroke="#2A2A2A" stroke-opacity="0.45" stroke-miterlimit="10"/>
<path d="M1052.18 20.4414L728.16 61.1897L250.528 -10.7468L-247.963 94.0234" stroke="#2A2A2A" stroke-opacity="0.45" stroke-miterlimit="10"/>
<path d="M1052.82 25.0647L742.174 66.0481L248.924 0.61566L-247.322 98.5683" stroke="#2A2A2A" stroke-opacity="0.45" stroke-miterlimit="10"/>
<path d="M1053.46 29.6877L756.294 70.9062L247.212 12.0562L-246.68 103.191" stroke="#2A2A2A" stroke-opacity="0.45" stroke-miterlimit="10"/>
<path d="M1054.21 34.3108L770.308 75.686L245.501 23.4184L-245.931 107.814" stroke="#2A2A2A" stroke-opacity="0.45" stroke-miterlimit="10"/>
<path d="M1054.85 38.9338L784.428 80.5441L243.789 34.7806L-245.289 112.437" stroke="#2A2A2A" stroke-opacity="0.45" stroke-miterlimit="10"/>
<path d="M1055.5 43.5569L798.441 85.4022L242.077 46.2211L-244.647 117.06" stroke="#2A2A2A" stroke-opacity="0.45" stroke-miterlimit="10"/>
<path d="M1056.14 48.1035L812.562 90.2623L240.366 57.5853L-244.005 121.685" stroke="#2A2A2A" stroke-opacity="0.45" stroke-miterlimit="10"/>
<path d="M1056.78 52.7266L826.682 95.1205L238.761 69.0258L-243.363 126.309" stroke="#2A2A2A" stroke-opacity="0.45" stroke-miterlimit="10"/>
<path d="M1057.42 57.3496L840.695 99.9002L237.05 80.388L-242.722 130.932" stroke="#2A2A2A" stroke-opacity="0.45" stroke-miterlimit="10"/>
<path d="M1058.06 61.9727L854.816 104.758L235.338 91.7502L-242.08 135.555" stroke="#2A2A2A" stroke-opacity="0.45" stroke-miterlimit="10"/>
<path d="M1058.71 66.5957L868.829 109.617L233.627 103.191L-241.438 140.178" stroke="#2A2A2A" stroke-opacity="0.45" stroke-miterlimit="10"/>
<path d="M1059.35 71.2207L882.95 114.477L231.915 114.555L-240.796 144.803" stroke="#2A2A2A" stroke-opacity="0.45" stroke-miterlimit="10"/>
<path d="M1059.99 75.8438L896.963 119.335L230.204 125.917L-240.154 149.426" stroke="#2A2A2A" stroke-opacity="0.45" stroke-miterlimit="10"/>
<path d="M1060.63 80.4649L911.082 124.113L228.491 137.356L-239.514 154.047" stroke="#2A2A2A" stroke-opacity="0.45" stroke-miterlimit="10"/>
</g>
</svg>
