<?xml version="1.0" encoding="utf-8"?>
<!-- Generator: Adobe Illustrator 17.0.0, SVG Export Plug-In . SVG Version: 6.00 Build 0)  -->
<!DOCTYPE svg PUBLIC "-//W3C//DTD SVG 1.1//EN" "http://www.w3.org/Graphics/SVG/1.1/DTD/svg11.dtd">
<svg version="1.1" id="Layer_1" xmlns="http://www.w3.org/2000/svg" xmlns:xlink="http://www.w3.org/1999/xlink" x="0px" y="0px"
	 width="100px" height="100px" viewBox="0 0 100 100" enable-background="new 0 0 100 100" xml:space="preserve">
<g>
	<circle fill="#CCCCCC" cx="49.329" cy="9.297" r="5.621"/>
	<path fill="#CCCCCC" d="M97.118,79.454c-0.008-0.015-0.012-0.032-0.02-0.047L71.437,33.302c-0.349-0.627-0.349-1.459-0.074-2.161
		c0.113-0.166,0.21-0.343,0.289-0.53c0.14-0.203,0.301-0.387,0.495-0.528l7.882-5.732c1.377-1.002,1.682-2.931,0.681-4.307
		c-1.003-1.378-2.931-1.682-4.307-0.681l-7.882,5.732c-0.5,0.363-0.944,0.781-1.343,1.233h-9.314c-1.703,0-3.084,1.38-3.084,3.084
		c0,1.703,1.38,3.084,3.084,3.084h7.132c0.014,0.38,0.06,0.758,0.124,1.134l-0.032,0.03l0.083,0.252
		c0.128,0.624,0.327,1.237,0.599,1.827l14.548,44.366l-16.908,1.479c-0.013-0.491-0.06-1.014-0.192-1.603l-4.973-20.757
		c-0.187-0.839-0.472-1.583-0.821-2.216c-0.387-0.957-1.003-1.927-1.842-2.792L45.322,43.633l3.896-20.936
		c0.613-3.294-1.372-6.46-4.411-7.034c-0.807-0.153-1.606-0.096-2.362,0.114c-0.86,0.219-1.974,0.748-3.492,1.73l-13.25,7.607
		c-0.607,0.382-2.68,1.878-2.525,3.365c0.083,0.796,0.409,1.5,0.912,2.016l10.1,11.512c-0.047,0.266-0.057,0.528-0.072,0.791
		l-6.698,9.392c-0.009,0.012-0.015,0.025-0.024,0.038c-0.225-0.05-0.443-0.112-0.677-0.143L8.651,49.66
		c-3.321-0.446-6.235-0.299-6.476,0.325c-0.241,0.625,2.142,2.061,5.296,3.193l18.272,6.556c0.882,0.316,1.733,0.444,2.522,0.433
		c0.138-0.001,0.279-0.012,0.423-0.025c0.189-0.016,0.374-0.035,0.552-0.07c1.321-0.247,2.82-0.94,4.162-2.026
		c0,0,5.407-3.751,5.63-3.996l11.493,7.183l7.902,18.627c0.304,0.742,0.625,1.44,0.948,2.076L5.578,86.644
		c-2.703,0.237-4.915,2.095-4.915,4.13c0,2.035,2.22,3.7,4.934,3.7h1.388v1.85h12.797v-1.85h59.821v1.85h12.797v-1.85h2.004
		c2.714,0,4.934-2.22,4.934-4.934v-6.167C99.337,81.658,98.451,80.222,97.118,79.454z M36.997,26.899l-2.011,10.808l-5.094-7.726
		c0.27-0.102,0.453-0.173,0.492-0.19L36.997,26.899z"/>
</g>
</svg>
