<svg width="26" height="24" viewBox="0 0 26 24" fill="none" xmlns="http://www.w3.org/2000/svg">
<path d="M23.5002 6.18951C23.3003 4.90611 23.1505 3.82016 23.1005 3.72144C23.1005 1.84571 19.1538 0.759766 17.8549 0.759766C16.2063 0.759766 14.8574 2.09252 14.8574 3.72144C14.8574 5.35036 16.2063 6.68312 17.8549 6.68312C18.1047 6.68312 18.4544 6.63376 18.8041 6.5844C18.2546 9.0031 17.805 11.9648 17.5052 13.8405C17.4552 14.0873 17.4552 14.2848 17.4053 14.4822C15.4569 13.9392 13.1089 13.9886 11.2604 14.6796C9.91158 13.4456 7.96321 12.4584 5.81502 12.0635C4.31628 11.7673 2.76758 11.7673 1.41871 12.0141C1.16892 12.0635 1.01904 12.2609 1.01904 12.5077V21.6396C1.01904 21.837 1.11896 22.0345 1.31879 22.0838C2.06816 22.38 2.86749 22.6268 3.71678 22.7749C4.51611 22.923 5.31544 23.0217 6.11477 23.0217C7.76338 23.0217 9.26212 22.6762 10.4611 22.0838C11.6601 22.6762 13.1589 23.0217 14.6576 23.0217C19.2038 23.0217 24.9989 20.06 24.9989 16.7035C24.9989 15.7162 24.2495 10.9775 23.5002 6.18951ZM14.6576 21.9851C13.2088 21.9851 11.81 21.6396 10.7109 21.0472C10.611 20.9979 10.561 20.9979 10.4611 20.9979C10.3612 20.9979 10.3112 20.9979 10.2113 21.0472C8.61267 21.9357 6.21468 22.2319 3.91661 21.7877C3.26716 21.6396 2.6177 21.4421 2.0182 21.2447V12.8533C3.16724 12.7052 4.41619 12.7546 5.66514 12.952C7.76338 13.3469 9.66179 14.2848 10.8608 15.5188C11.0107 15.6669 11.2105 15.7162 11.4103 15.6175C12.4095 15.2226 13.5086 14.9758 14.7076 14.9758C15.7567 14.9758 16.8058 15.1733 17.705 15.4694C17.8549 15.5188 18.0048 15.5188 18.1047 15.4201C18.2546 15.3213 18.3045 15.2226 18.3545 15.0745C18.4044 14.7784 18.4544 14.3341 18.5543 13.8405C18.8541 11.8167 19.4036 8.3614 20.0531 5.89334C20.103 5.74525 20.0531 5.54781 19.9032 5.39972C19.7533 5.301 19.6034 5.25164 19.4036 5.301C18.8041 5.44909 18.3045 5.54781 17.9049 5.54781C16.8058 5.54781 15.9065 4.65931 15.9065 3.57336C15.9065 2.48741 16.8058 1.59891 17.9049 1.59891C19.2537 1.59891 22.1513 2.68485 22.1513 3.57336C22.1513 3.67208 22.2013 3.96825 22.551 6.18951C23.0505 9.44735 23.9998 15.5681 23.9998 16.506C23.9998 19.1222 18.954 21.9851 14.6576 21.9851Z" fill="white" stroke="white" stroke-miterlimit="10"/>
</svg>
