<svg width="17" height="18" viewBox="0 0 17 18" fill="none" xmlns="http://www.w3.org/2000/svg">
<path d="M15.7494 2.80912H13.2625V1.25392C13.2625 1.02153 13.0885 0.842773 12.8625 0.842773H11.0364C10.8103 0.842773 10.6364 1.02153 10.6364 1.25392V2.80912H5.66246V1.25392C5.66246 1.02153 5.48854 0.842773 5.26246 0.842773H3.43637C3.21028 0.842773 3.03637 1.02153 3.03637 1.25392V2.80912H0.549414C0.340718 2.80912 0.149414 2.98788 0.149414 3.22027V17.4316C0.149414 17.664 0.323327 17.8428 0.549414 17.8428H15.7494C15.9581 17.8428 16.1494 17.664 16.1494 17.4316V3.22027C16.1494 2.98788 15.9581 2.80912 15.7494 2.80912ZM11.419 1.66507H12.4625V4.02469H11.419V1.66507ZM3.81898 1.66507H4.86246V4.02469H3.81898V1.66507ZM15.3494 17.0026H0.949414V6.54519H15.3494V17.0026Z" fill="#85C441"/>
<path d="M2.9319 15.1618H4.79277C4.89712 15.1618 4.98408 15.0724 4.98408 14.9651V13.0345C4.98408 12.9273 4.89712 12.8379 4.79277 12.8379H2.9319C2.82756 12.8379 2.7406 12.9273 2.7406 13.0345V14.9472C2.7406 15.0724 2.82756 15.1618 2.9319 15.1618Z" fill="#85C441"/>
<path d="M7.21024 15.1618H9.07111C9.17546 15.1618 9.26242 15.0724 9.26242 14.9651V13.0345C9.26242 12.9273 9.17546 12.8379 9.07111 12.8379H7.21024C7.1059 12.8379 7.01894 12.9273 7.01894 13.0345V14.9472C7.00155 15.0724 7.0885 15.1618 7.21024 15.1618Z" fill="#85C441"/>
<path d="M11.4712 15.1618H13.332C13.4364 15.1618 13.5233 15.0724 13.5233 14.9651V13.0345C13.5233 12.9273 13.4364 12.8379 13.332 12.8379H11.4712C11.3668 12.8379 11.2799 12.9273 11.2799 13.0345V14.9472C11.2625 15.0724 11.3494 15.1618 11.4712 15.1618Z" fill="#85C441"/>
<path d="M2.9319 10.7464H4.79277C4.89712 10.7464 4.98408 10.657 4.98408 10.5498V8.63706C4.98408 8.52981 4.89712 8.44043 4.79277 8.44043H2.9319C2.82756 8.44043 2.7406 8.52981 2.7406 8.63706V10.5498C2.7406 10.657 2.82756 10.7464 2.9319 10.7464Z" fill="#85C441"/>
<path d="M7.21024 10.7464H9.07111C9.17546 10.7464 9.26242 10.657 9.26242 10.5498V8.63706C9.26242 8.52981 9.17546 8.44043 9.07111 8.44043H7.21024C7.1059 8.44043 7.01894 8.52981 7.01894 8.63706V10.5498C7.00155 10.657 7.0885 10.7464 7.21024 10.7464Z" fill="#85C441"/>
<path d="M11.4712 10.7464H13.332C13.4364 10.7464 13.5233 10.657 13.5233 10.5498V8.63706C13.5233 8.52981 13.4364 8.44043 13.332 8.44043H11.4712C11.3668 8.44043 11.2799 8.52981 11.2799 8.63706V10.5498C11.2625 10.657 11.3494 10.7464 11.4712 10.7464Z" fill="#85C441"/>
</svg>
