<svg width="43" height="43" viewBox="0 0 43 43" fill="none" xmlns="http://www.w3.org/2000/svg">
<path d="M21.9681 42.209C10.4181 42.209 0.96814 32.759 0.96814 21.209C0.96814 9.65898 10.4181 0.208984 21.9681 0.208984C33.5181 0.208984 42.9681 9.65898 42.9681 21.209C42.9681 32.759 33.5181 42.209 21.9681 42.209ZM21.9681 38.009C31.2081 38.009 38.7681 30.449 38.7681 21.209C38.7681 11.969 31.2081 4.40898 21.9681 4.40898C12.7281 4.40898 5.16814 11.969 5.16814 21.209C5.16814 30.449 12.7281 38.009 21.9681 38.009ZM24.0681 21.209H32.4681V25.409H19.8681V8.60898H24.0681V21.209Z" fill="white"/>
</svg>
