<svg width="41" height="41" viewBox="0 0 41 41" fill="none" xmlns="http://www.w3.org/2000/svg">
<g clip-path="url(#clip0)">
<path d="M20.6087 40.6372C9.51995 40.6372 0.447327 31.5646 0.447327 20.4758C0.447327 9.38707 9.51995 0.314453 20.6087 0.314453C31.6975 0.314453 40.7701 9.38707 40.7701 20.4758C40.7701 31.5646 31.6975 40.6372 20.6087 40.6372ZM20.6087 36.6049C29.4797 36.6049 36.7378 29.3468 36.7378 20.4758C36.7378 11.6048 29.4797 4.34673 20.6087 4.34673C11.7377 4.34673 4.4796 11.6048 4.4796 20.4758C4.4796 29.3468 11.7377 36.6049 20.6087 36.6049Z" fill="white"/>
</g>
<path d="M22.4983 14.5829V12.515C22.4983 12.2704 22.2982 12.0703 22.0536 12.0703H19.163C18.9184 12.0703 18.7183 12.2704 18.7183 12.515V14.5829C18.7183 14.8275 18.9184 15.0276 19.163 15.0276H22.0536C22.2982 15.0276 22.4983 14.8275 22.4983 14.5829ZM22.4094 28.7691V16.9176C22.4094 16.6731 22.2092 16.4729 21.9646 16.4729H19.2519C19.0073 16.4729 18.8072 16.6731 18.8072 16.9176V28.7691C18.8072 29.0137 19.0073 29.2139 19.2519 29.2139H21.9646C22.2092 29.2139 22.4094 29.0137 22.4094 28.7691Z" fill="white"/>
<defs>
<clipPath id="clip0">
<rect width="40.3228" height="40.3228" fill="white" transform="translate(0.447327 0.314453)"/>
</clipPath>
</defs>
</svg>
