<svg width="176" height="26" viewBox="0 0 176 26" fill="none" xmlns="http://www.w3.org/2000/svg">
<g clip-path="url(#clip0)">
<path d="M54.9151 20.1453L53.1817 25.725H60.3414C58.6834 20.8699 53.1063 9.85543 46.9263 0.942383C43.9116 1.37717 40.8216 1.88441 37.6562 2.60905C41.726 7.39166 45.0421 12.609 47.6799 18.1888C49.4134 18.9134 51.6743 19.7105 54.9151 20.1453Z" fill="white"/>
<path d="M34.4909 20.5075L33.2097 25.6525H37.2041L38.3346 21.0872C38.3346 21.1597 36.8273 20.7974 34.4909 20.5075ZM12.8608 21.5945L13.9913 25.6525H16.6291L17.835 20.7249C14.8204 21.2322 12.8608 21.5945 12.8608 21.5945ZM29.2906 20.1452L27.9341 25.6525H32.1546L33.5111 20.3626C32.2299 20.2901 30.798 20.1452 29.2906 20.1452ZM18.8901 20.6525L17.6089 25.6525H21.4526L22.8092 20.2177C21.4526 20.3626 20.096 20.5075 18.8901 20.6525ZM25.5223 20.0728C24.9948 20.0728 24.3919 20.1452 23.8643 20.1452L22.5077 25.6525H26.8789L28.3109 20.0728C27.4065 20.0728 26.5021 20.0728 25.5223 20.0728Z" fill="white"/>
<path d="M45.1934 17.1018C45.3441 17.1743 45.5702 17.2468 45.7209 17.3192C43.0831 12.1743 39.8424 7.39168 36.0741 2.89893C33.0594 3.62356 30.0448 4.49313 26.8794 5.65255C29.5172 8.47864 31.9289 11.5221 34.0392 14.7105C39.3148 15.0728 42.6309 16.0873 45.1934 17.1018Z" fill="white"/>
<path d="M30.4213 14.5655C31.0243 14.5655 31.6272 14.5655 32.2301 14.6379C30.1952 11.6669 28.0096 8.84083 25.5225 6.15967C22.734 7.17416 19.9455 8.40604 17.0815 9.85532C18.7396 11.5944 20.3977 13.406 21.905 15.2901C24.6935 14.8553 27.6328 14.5655 30.4213 14.5655Z" fill="white"/>
<path d="M12.7858 17.8989C15.0468 17.0294 17.6092 16.2323 20.3224 15.6525C18.8905 13.9134 17.4585 12.1743 15.8758 10.5801C13.3887 11.8844 10.7509 13.4062 8.18848 15.1453C9.2436 16.2323 10.2987 17.3917 11.2785 18.5511C11.806 18.2612 12.2582 18.1163 12.7858 17.8989Z" fill="white"/>
<path d="M5.92738 20.2179C5.92738 20.2179 7.13324 20.0006 9.92178 18.9861C9.01739 17.8991 8.03763 16.8846 7.05787 15.8701C4.72152 17.3919 2.38518 19.131 0.0488281 21.015C1.48078 22.5368 2.91274 24.0585 4.19396 25.7252H8.56519L5.92738 20.2179Z" fill="white"/>
<path d="M74.4352 4.63822C74.4352 4.34836 74.4352 4.13097 74.3599 3.91358C74.2845 3.69619 74.2091 3.55126 74.0584 3.4788C73.9077 3.40633 73.7569 3.33387 73.5308 3.26141C73.3047 3.18894 73.0033 3.18894 72.7018 3.18894H70.8177V6.15996H72.7018C73.0033 6.15996 73.3047 6.15996 73.5308 6.08749C73.6816 6.08749 73.9077 6.01503 73.983 5.8701C74.1338 5.79764 74.2091 5.58025 74.2845 5.43532C74.3599 5.21793 74.3599 5.00054 74.3599 4.71068V4.63822H74.4352ZM76.9223 4.85561C76.9223 5.65271 76.7716 6.23242 76.3947 6.6672C76.0933 7.10199 75.5657 7.46431 74.9628 7.6817L77.4499 11.7397H74.6613L72.5511 8.04402H70.8177V11.8121H68.3306V1.23242H72.7772C73.5308 1.23242 74.1338 1.30489 74.6613 1.37735C75.1889 1.52228 75.6411 1.6672 75.9425 1.95706C76.244 2.24691 76.5455 2.53677 76.6962 2.97155C76.8469 3.40633 76.9223 3.91358 76.9223 4.49329V4.85561Z" fill="white"/>
<path d="M80.9921 1.23242H78.4297V11.8121H80.9921V1.23242Z" fill="white"/>
<path d="M85.1372 7.17425C85.1372 7.6815 85.1372 8.11628 85.2125 8.4786C85.2879 8.84092 85.4386 9.05831 85.5893 9.2757C85.7401 9.49309 86.0415 9.56556 86.343 9.63802C86.6445 9.71048 87.0967 9.71048 87.5489 9.71048H88.0764H88.6794C88.9055 9.71048 89.1315 9.71048 89.433 9.71048C89.7345 9.71048 90.0359 9.71048 90.4128 9.71048L89.9606 11.7395C89.3577 11.7395 88.8301 11.7395 88.4533 11.7395H87.4735C86.5691 11.7395 85.8154 11.667 85.1372 11.5221C84.5342 11.3771 84.0067 11.0873 83.6298 10.725C83.253 10.3627 82.9515 9.85541 82.8008 9.2757C82.6501 8.69599 82.5747 7.97135 82.5747 7.02932V5.94237C82.5747 5.0728 82.6501 4.34817 82.8762 3.76846C83.0269 3.18875 83.3284 2.6815 83.7052 2.31918C84.082 1.95686 84.6096 1.66701 85.2125 1.52208C85.8154 1.37715 86.6445 1.30469 87.4735 1.30469H88.0011H88.604C88.8301 1.30469 89.1315 1.30469 89.3576 1.30469C89.5837 1.30469 89.9606 1.30469 90.3374 1.30469L89.8852 3.33367C89.5084 3.33367 89.1315 3.33367 88.6794 3.33367C88.2272 3.33367 87.8503 3.33367 87.4735 3.33367C86.9459 3.33367 86.5691 3.33367 86.2676 3.40614C85.9662 3.4786 85.7401 3.62353 85.514 3.76846C85.3633 3.98585 85.2125 4.20324 85.1372 4.56556C85.0618 4.92788 85.0618 5.36266 85.0618 5.8699V7.17425H85.1372Z" fill="white"/>
<path d="M98.703 1.23242V5.36286H94.3318V1.23242H91.8447V11.8121H94.3318V7.53677H98.703V11.8121H101.19V1.23242H98.703Z" fill="white"/>
<path d="M111.365 1.23242L108.576 6.6672L105.712 1.23242H102.999V11.8121H105.411V4.92807L107.521 8.84112H109.556L111.666 4.85561V11.8121H114.078V1.23242H111.365Z" fill="white"/>
<path d="M120.635 10.0004C121.087 10.0004 121.539 10.0004 121.841 9.92789C122.142 9.85543 122.368 9.7105 122.594 9.49311C122.745 9.27572 122.896 8.98586 122.971 8.62354C123.047 8.26122 123.047 7.75398 123.047 7.17427V5.72499C123.047 5.14528 123.047 4.7105 122.971 4.34818C122.896 3.98586 122.82 3.69601 122.594 3.47861C122.444 3.26122 122.142 3.1163 121.841 3.04383C121.539 2.97137 121.162 2.8989 120.635 2.8989C120.183 2.8989 119.73 2.8989 119.429 2.97137C119.127 3.04383 118.901 3.18876 118.675 3.40615C118.525 3.62354 118.374 3.9134 118.298 4.27572C118.223 4.63804 118.223 5.07282 118.223 5.72499V7.17427C118.223 7.75398 118.223 8.18876 118.298 8.55108C118.374 8.9134 118.449 9.20325 118.675 9.42064C118.826 9.63803 119.127 9.78296 119.429 9.85543C119.73 10.0004 120.107 10.0004 120.635 10.0004ZM120.635 12.1018C119.655 12.1018 118.826 12.0293 118.223 11.8119C117.545 11.5946 117.093 11.3047 116.716 10.9424C116.339 10.5801 116.037 10.0728 115.887 9.42064C115.736 8.84093 115.661 8.1163 115.661 7.24673V5.72499C115.661 4.92789 115.736 4.20325 115.887 3.62354C116.037 3.04383 116.339 2.53659 116.716 2.1018C117.093 1.73948 117.62 1.37717 118.223 1.23224C118.901 1.01485 119.655 0.942383 120.635 0.942383C121.615 0.942383 122.368 1.01485 123.047 1.23224C123.649 1.44963 124.177 1.73948 124.554 2.1018C124.931 2.46412 125.232 2.97137 125.383 3.55108C125.534 4.13079 125.609 4.85543 125.609 5.72499V7.24673C125.609 8.04383 125.534 8.76847 125.383 9.34818C125.232 9.92789 124.931 10.4351 124.554 10.8699C124.177 11.2322 123.649 11.5946 123.047 11.7395C122.368 11.9569 121.615 12.1018 120.635 12.1018Z" fill="white"/>
<path d="M134.125 1.23242V7.97155L129.226 1.23242H127.191V11.8121H129.603V5.14547L134.427 11.8121H136.537V1.23242H134.125Z" fill="white"/>
<path d="M140.757 9.78314H142.566C143.018 9.78314 143.395 9.78315 143.697 9.63822C143.998 9.56575 144.224 9.42083 144.45 9.20343C144.676 8.98604 144.752 8.76865 144.827 8.40633C144.902 8.04402 144.978 7.60923 144.978 7.10199V5.94257C144.978 5.43532 144.902 5.00054 144.827 4.63822C144.752 4.2759 144.601 4.05851 144.45 3.84112C144.224 3.62373 143.998 3.4788 143.697 3.40633C143.395 3.33387 143.018 3.26141 142.566 3.26141H140.757V9.78314ZM138.27 1.23242H142.792C143.772 1.23242 144.526 1.30489 145.129 1.52228C145.731 1.73967 146.259 2.02952 146.636 2.39184C147.013 2.75416 147.239 3.26141 147.389 3.84112C147.54 4.42083 147.616 5.073 147.616 5.8701V7.10199C147.616 7.89909 147.54 8.55126 147.389 9.13097C147.239 9.71068 147.013 10.2179 146.636 10.5802C146.259 10.9426 145.807 11.3049 145.129 11.4498C144.526 11.6672 143.772 11.7397 142.792 11.7397H138.195V1.23242H138.27Z" fill="white"/>
<path d="M73.0787 23.8407C73.5308 23.8407 73.983 23.8407 74.2845 23.7682C74.586 23.6958 74.8121 23.5508 75.0382 23.3334C75.1889 23.116 75.3396 22.8262 75.415 22.4639C75.4904 22.1016 75.4904 21.6668 75.4904 21.0146V19.5653C75.4904 18.9856 75.4904 18.5508 75.415 18.1885C75.3396 17.8262 75.2643 17.5363 75.0382 17.3189C74.8874 17.1016 74.586 16.9566 74.2845 16.8842C73.983 16.8842 73.5308 16.8842 73.0787 16.8842C72.6265 16.8842 72.1743 16.8842 71.8728 16.9566C71.5713 17.0291 71.3452 17.174 71.1191 17.3914C70.9684 17.6088 70.8177 17.8987 70.7423 18.261C70.6669 18.6233 70.6669 19.0581 70.6669 19.7102V21.1595C70.6669 21.7392 70.6669 22.174 70.7423 22.5363C70.8177 22.8987 70.893 23.1885 71.1191 23.4059C71.2699 23.6233 71.5713 23.7682 71.8728 23.8407C72.1743 23.8407 72.6265 23.8407 73.0787 23.8407ZM73.0787 25.9421C72.0989 25.9421 71.2699 25.8697 70.6669 25.6523C69.9886 25.4349 69.5364 25.145 69.1596 24.7827C68.7828 24.4204 68.4813 23.9131 68.3306 23.261C68.1799 22.6813 68.1045 21.9566 68.1045 21.0871V19.5653C68.1045 18.7682 68.1799 18.0436 68.3306 17.4639C68.4813 16.8842 68.7828 16.3769 69.1596 15.9421C69.5364 15.5798 70.064 15.2175 70.6669 15.0726C71.3452 14.8552 72.0989 14.7827 73.0787 14.7827C74.0584 14.7827 74.8121 14.8552 75.4904 15.0726C76.0933 15.29 76.6209 15.5798 76.9977 15.9421C77.3745 16.3045 77.676 16.8117 77.8267 17.3914C77.9774 17.9711 78.0528 18.6958 78.0528 19.5653V21.0871C78.0528 21.8842 77.9774 22.6088 77.8267 23.1885C77.676 23.7682 77.3745 24.2755 76.9977 24.7102C76.6209 25.0726 76.0933 25.4349 75.4904 25.5798C74.8874 25.7972 74.0584 25.9421 73.0787 25.9421Z" fill="white"/>
<path d="M79.6357 15.0728V25.6525H86.9462L87.3231 23.551H82.1982V15.0728H79.6357Z" fill="white"/>
<path d="M93.2767 15.0728L90.865 19.3481L88.4533 15.0728H85.5894L89.5838 21.3771V25.6525H92.0708V21.3771L95.9899 15.0728H93.2767Z" fill="white"/>
<path d="M105.335 15.0728L102.547 20.4351L99.6829 15.0728H96.9697V25.6525H99.3814V18.7684L101.492 22.6814H103.527L105.637 18.6959V25.6525H108.049V15.0728H105.335Z" fill="white"/>
<path d="M115.886 18.4785C115.886 18.1887 115.886 17.9713 115.811 17.7539C115.736 17.5365 115.66 17.3916 115.51 17.3191C115.359 17.2467 115.208 17.1017 114.982 17.1017C114.756 17.0293 114.454 17.0293 114.153 17.0293H112.344V20.0728H114.153C114.454 20.0728 114.756 20.0728 114.982 20.0003C115.208 19.9278 115.359 19.8554 115.51 19.7829C115.66 19.7104 115.736 19.493 115.811 19.3481C115.886 19.1307 115.886 18.9133 115.886 18.6235V18.4785ZM112.269 22.1017V25.6525H109.782V15.0728H114.153C115.66 15.0728 116.715 15.3626 117.394 15.8699C118.072 16.3771 118.373 17.1742 118.373 18.3336V18.9133C118.373 20.0003 118.072 20.7974 117.394 21.3046C116.715 21.8119 115.66 22.1017 114.153 22.1017H112.269Z" fill="white"/>
<path d="M122.292 15.0728H119.73V25.6525H122.292V15.0728Z" fill="white"/>
<path d="M126.513 21.015C126.513 21.5222 126.513 21.957 126.588 22.3193C126.664 22.6817 126.814 22.899 126.965 23.1164C127.116 23.3338 127.417 23.4063 127.719 23.4788C128.02 23.5512 128.472 23.5512 128.925 23.5512H129.452H130.055C130.281 23.5512 130.507 23.5512 130.809 23.5512C131.11 23.5512 131.412 23.5512 131.788 23.5512L131.336 25.5802C130.733 25.5802 130.206 25.5802 129.829 25.5802H128.774C127.869 25.5802 127.116 25.5077 126.437 25.3628C125.835 25.2179 125.307 24.928 124.93 24.5657C124.553 24.2034 124.252 23.6961 124.101 23.1164C123.95 22.5367 123.875 21.8121 123.875 20.8701V19.6382C123.875 18.7686 123.95 18.044 124.176 17.4643C124.327 16.8845 124.629 16.3773 125.005 16.015C125.382 15.6527 125.91 15.3628 126.513 15.2179C127.116 15.073 127.945 15.0005 128.774 15.0005H129.301H129.904C130.13 15.0005 130.432 15.0005 130.658 15.0005C130.959 15.0005 131.261 15.0005 131.638 15.0005L131.185 17.0295C130.809 17.0295 130.432 17.0295 129.98 17.0295C129.527 17.0295 129.151 17.0295 128.774 17.0295C128.246 17.0295 127.869 17.0295 127.568 17.1019C127.266 17.1744 127.04 17.3193 126.814 17.4643C126.664 17.6816 126.513 17.899 126.437 18.2614C126.362 18.6237 126.362 19.0585 126.362 19.5657V21.015H126.513Z" fill="white"/>
<path d="M140.833 23.8407C141.285 23.8407 141.737 23.8407 142.038 23.7682C142.34 23.6958 142.566 23.5508 142.792 23.3334C142.943 23.116 143.094 22.8262 143.169 22.4639C143.244 22.1016 143.244 21.6668 143.244 21.0146V19.5653C143.244 18.9856 143.244 18.5508 143.169 18.1885C143.094 17.8262 143.018 17.5363 142.792 17.3189C142.641 17.1016 142.415 16.9566 142.038 16.8842C141.737 16.8117 141.36 16.7392 140.833 16.7392C140.38 16.7392 139.928 16.7392 139.627 16.8117C139.325 16.8842 139.099 17.0291 138.873 17.2465C138.722 17.4639 138.572 17.7537 138.496 18.116C138.421 18.4784 138.421 18.9131 138.421 19.5653V21.0146C138.421 21.5943 138.421 22.0291 138.496 22.3914C138.572 22.7537 138.647 23.0436 138.873 23.261C139.024 23.4784 139.325 23.6233 139.627 23.6958C139.928 23.8407 140.38 23.8407 140.833 23.8407ZM140.833 25.9421C139.853 25.9421 139.024 25.8697 138.421 25.6523C137.743 25.4349 137.29 25.145 136.914 24.7827C136.537 24.4204 136.235 23.9131 136.084 23.261C135.934 22.6813 135.858 21.9566 135.858 21.0871V19.5653C135.858 18.7682 135.934 18.0436 136.084 17.4639C136.235 16.8842 136.537 16.3769 136.914 15.9421C137.29 15.5798 137.818 15.2175 138.421 15.0726C139.099 14.8552 139.853 14.7827 140.833 14.7827C141.812 14.7827 142.566 14.8552 143.244 15.0726C143.847 15.29 144.375 15.5798 144.752 15.9421C145.128 16.3045 145.43 16.8117 145.581 17.3914C145.731 17.9711 145.807 18.6958 145.807 19.5653V21.0871C145.807 21.8842 145.731 22.6088 145.581 23.1885C145.43 23.7682 145.128 24.2755 144.752 24.7102C144.375 25.0726 143.847 25.4349 143.244 25.5798C142.641 25.7972 141.812 25.9421 140.833 25.9421Z" fill="white"/>
<path d="M153.871 15.0728L151.459 22.8264L148.972 15.0728H146.184L149.877 25.6525H152.891L156.509 15.0728H153.871Z" fill="white"/>
<path d="M160.729 17.2467L162.086 21.1597H159.372L160.729 17.2467ZM159.297 15.0728L155.303 25.6525H157.865L158.694 23.1162H162.613L163.518 25.6525H166.155L162.161 15.0728H159.297Z" fill="white"/>
<path d="M167.361 15.0728V25.6525H174.672L175.049 23.551H169.924V15.0728H167.361Z" fill="white"/>
</g>
<defs>
<clipPath id="clip0">
<rect width="175" height="25" fill="white" transform="translate(0.0488281 0.942383)"/>
</clipPath>
</defs>
</svg>
