<svg width="147" height="23" viewBox="0 0 147 23" fill="none" xmlns="http://www.w3.org/2000/svg">
<g clip-path="url(#clip0)">
<path d="M46.0879 17.2049L44.6318 22.1151H50.646C49.2532 17.8426 44.5685 8.14988 39.3773 0.306396C36.845 0.689005 34.2494 1.13538 31.5905 1.77306C35.0091 5.98176 37.7946 10.5731 40.0103 15.4832C41.4664 16.1209 43.3656 16.8223 46.0879 17.2049Z" fill="#005087"/>
<path d="M28.9315 17.5237L27.8553 22.0513H31.2106L32.1602 18.0339C32.1602 18.0976 30.8941 17.7788 28.9315 17.5237ZM10.7623 18.4802L11.7119 22.0513H13.9276L14.9406 17.715C12.4083 18.1614 10.7623 18.4802 10.7623 18.4802ZM24.5633 17.2049L23.4238 22.0513H26.969L28.1085 17.3962C27.0323 17.3324 25.8294 17.2049 24.5633 17.2049ZM15.8269 17.6513L14.7506 22.0513H17.9793L19.1189 17.2687C17.9793 17.3962 16.8398 17.5237 15.8269 17.6513ZM21.3979 17.1411C20.9548 17.1411 20.4483 17.2049 20.0052 17.2049L18.8656 22.0513H22.5375L23.7403 17.1411C22.9806 17.1411 22.2209 17.1411 21.3979 17.1411Z" fill="#005087"/>
<path d="M37.9212 14.5266C38.0478 14.5904 38.2377 14.6542 38.3643 14.7179C36.1486 10.1904 33.4264 5.9817 30.261 2.02808C27.7287 2.66576 25.1964 3.43097 22.5375 4.45126C24.7532 6.93822 26.7791 9.61648 28.5517 12.4223C32.9832 12.7411 35.7687 13.6339 37.9212 14.5266Z" fill="#008CD1"/>
<path d="M25.5129 12.2948C26.0194 12.2948 26.5258 12.2948 27.0323 12.3586C25.323 9.74408 23.4871 7.25713 21.3979 4.89771C19.0556 5.79046 16.7132 6.87452 14.3075 8.14988C15.7003 9.68031 17.093 11.2745 18.3592 12.9325C20.7016 12.5499 23.1705 12.2948 25.5129 12.2948Z" fill="#00B5DF"/>
<path d="M10.699 15.2282C12.5982 14.463 14.7507 13.7615 17.0297 13.2514C15.8269 11.7209 14.624 10.1905 13.2946 8.7876C11.2054 9.93542 8.98967 11.2746 6.83722 12.805C7.72352 13.7615 8.60983 14.7818 9.43283 15.8021C9.87598 15.547 10.2558 15.4195 10.699 15.2282Z" fill="#6CCDE7"/>
<path d="M4.93798 17.2687C4.93798 17.2687 5.9509 17.0774 8.29328 16.1847C7.53359 15.2281 6.71059 14.3354 5.8876 13.4426C3.92506 14.7818 1.96253 16.3122 0 17.9702C1.20284 19.3093 2.40568 20.6484 3.48191 22.1151H7.15375L4.93798 17.2687Z" fill="#85C441"/>
<path d="M62.4845 3.55862C62.4845 3.30355 62.4845 3.11225 62.4212 2.92094C62.3579 2.72964 62.2946 2.6021 62.1679 2.53834C62.0413 2.47457 61.9147 2.4108 61.7248 2.34703C61.5349 2.28326 61.2816 2.28326 61.0284 2.28326H59.4457V4.89776H61.0284C61.2816 4.89776 61.5349 4.89776 61.7248 4.83399C61.8514 4.83399 62.0413 4.77022 62.1046 4.64268C62.2312 4.57892 62.2946 4.38761 62.3579 4.26007C62.4212 4.06877 62.4212 3.87747 62.4212 3.62239V3.55862H62.4845ZM64.5736 3.74993C64.5736 4.45138 64.447 4.96152 64.1305 5.34413C63.8772 5.72674 63.4341 6.04558 62.9276 6.23689L65.0168 9.8079H62.6744L60.9018 6.55573H59.4457V9.87167H57.3566V0.561523H61.0917C61.7248 0.561523 62.2312 0.625292 62.6744 0.68906C63.1176 0.816596 63.4974 0.944132 63.7506 1.1992C64.0039 1.45428 64.2571 1.70935 64.3837 2.09196C64.5103 2.47457 64.5736 2.92094 64.5736 3.43109V3.74993Z" fill="#005087"/>
<path d="M67.9922 0.561523H65.8398V9.87167H67.9922V0.561523Z" fill="#005087"/>
<path d="M71.4742 5.79046C71.4742 6.23684 71.4742 6.61945 71.5375 6.93829C71.6008 7.25713 71.7274 7.44843 71.854 7.63974C71.9806 7.83104 72.2339 7.89481 72.4871 7.95858C72.7403 8.02235 73.1202 8.02235 73.5 8.02235H73.9432H74.4496C74.6395 8.02235 74.8295 8.02235 75.0827 8.02235C75.3359 8.02235 75.5892 8.02235 75.9057 8.02235L75.5258 9.80785C75.0194 9.80785 74.5762 9.80785 74.2597 9.80785H73.4367C72.677 9.80785 72.0439 9.74409 71.4742 9.61655C70.9677 9.48901 70.5246 9.23394 70.208 8.9151C69.8915 8.59626 69.6383 8.14988 69.5116 7.63974C69.385 7.12959 69.3217 6.49191 69.3217 5.66293V4.7064C69.3217 3.94119 69.385 3.30351 69.5749 2.79336C69.7016 2.28322 69.9548 1.83684 70.2713 1.518C70.5879 1.19916 71.031 0.944085 71.5375 0.816549C72.0439 0.689012 72.7403 0.625244 73.4367 0.625244H73.8799H74.3863C74.5762 0.625244 74.8295 0.625244 75.0194 0.625244C75.2093 0.625244 75.5258 0.625244 75.8424 0.625244L75.4625 2.41075C75.146 2.41075 74.8295 2.41075 74.4496 2.41075C74.0698 2.41075 73.7532 2.41075 73.4367 2.41075C72.9935 2.41075 72.677 2.41075 72.4238 2.47452C72.1706 2.53829 71.9806 2.66582 71.7907 2.79336C71.6641 2.98466 71.5375 3.17597 71.4742 3.49481C71.4109 3.81365 71.4109 4.19626 71.4109 4.64264V5.79046H71.4742Z" fill="#005087"/>
<path d="M82.8695 0.561523V4.19631H79.1977V0.561523H77.1085V9.87167H79.1977V6.10935H82.8695V9.87167H84.9586V0.561523H82.8695Z" fill="#005087"/>
<path d="M93.5051 0.561523L91.1628 5.34413L88.7571 0.561523H86.478V9.87167H88.5039V3.8137L90.2765 7.25718H91.9858L93.7584 3.74993V9.87167H95.7842V0.561523H93.5051Z" fill="#005087"/>
<path d="M101.292 8.27741C101.672 8.27741 102.052 8.27741 102.305 8.21364C102.558 8.14987 102.748 8.02234 102.938 7.83103C103.065 7.63973 103.191 7.38466 103.255 7.06582C103.318 6.74698 103.318 6.3006 103.318 5.79045V4.51509C103.318 4.00495 103.318 3.62234 103.255 3.3035C103.191 2.98466 103.128 2.72958 102.938 2.53828C102.811 2.34698 102.558 2.21944 102.305 2.15567C102.052 2.0919 101.735 2.02814 101.292 2.02814C100.912 2.02814 100.532 2.02814 100.279 2.0919C100.026 2.15567 99.8359 2.28321 99.646 2.47451C99.5194 2.66582 99.3928 2.92089 99.3295 3.23973C99.2662 3.55857 99.2662 3.94118 99.2662 4.51509V5.79045C99.2662 6.3006 99.2662 6.68321 99.3295 7.00205C99.3928 7.32089 99.4561 7.57596 99.646 7.76727C99.7726 7.95857 100.026 8.08611 100.279 8.14988C100.532 8.27741 100.849 8.27741 101.292 8.27741ZM101.292 10.1267C100.469 10.1267 99.7726 10.0629 99.2662 9.87161C98.6964 9.68031 98.3166 9.42524 98 9.1064C97.6835 8.78756 97.4302 8.34118 97.3036 7.76727C97.177 7.25712 97.1137 6.61944 97.1137 5.85422V4.51509C97.1137 3.81364 97.177 3.17596 97.3036 2.66582C97.4302 2.15567 97.6835 1.7093 98 1.32669C98.3166 1.00785 98.7597 0.689005 99.2662 0.561469C99.8359 0.370165 100.469 0.306396 101.292 0.306396C102.115 0.306396 102.748 0.370165 103.318 0.561469C103.824 0.752773 104.267 1.00785 104.584 1.32669C104.901 1.64553 105.154 2.0919 105.28 2.60205C105.407 3.11219 105.47 3.74987 105.47 4.51509V5.85422C105.47 6.55567 105.407 7.19335 105.28 7.7035C105.154 8.21364 104.901 8.66002 104.584 9.04263C104.267 9.36147 103.824 9.68031 103.318 9.80785C102.748 9.99915 102.115 10.1267 101.292 10.1267Z" fill="#005087"/>
<path d="M112.624 0.561523V6.49196L108.509 0.561523H106.8V9.87167H108.826V4.005L112.877 9.87167H114.65V0.561523H112.624Z" fill="#005087"/>
<path d="M118.195 8.08616H119.714C120.094 8.08616 120.411 8.08616 120.664 7.95862C120.917 7.89486 121.107 7.76732 121.297 7.57602C121.487 7.38471 121.55 7.19341 121.614 6.87457C121.677 6.55573 121.74 6.17312 121.74 5.72674V4.70645C121.74 4.26007 121.677 3.87747 121.614 3.55862C121.55 3.23978 121.424 3.04848 121.297 2.85718C121.107 2.66587 120.917 2.53833 120.664 2.47457C120.411 2.4108 120.094 2.34703 119.714 2.34703H118.195V8.08616ZM116.106 0.561523H119.904C120.727 0.561523 121.36 0.625292 121.867 0.816596C122.373 1.0079 122.817 1.26297 123.133 1.58181C123.45 1.90065 123.64 2.34703 123.766 2.85718C123.893 3.36732 123.956 3.94123 123.956 4.64268V5.72674C123.956 6.42819 123.893 7.0021 123.766 7.51225C123.64 8.02239 123.45 8.46877 123.133 8.78761C122.817 9.10645 122.437 9.42529 121.867 9.55283C121.36 9.74413 120.727 9.8079 119.904 9.8079H116.043V0.561523H116.106Z" fill="#005087"/>
<path d="M61.345 20.4571C61.7248 20.4571 62.1047 20.4571 62.3579 20.3933C62.6111 20.3296 62.8011 20.202 62.991 20.0107C63.1176 19.8194 63.2442 19.5643 63.3075 19.2455C63.3708 18.9267 63.3708 18.5441 63.3708 17.9701V16.6948C63.3708 16.1846 63.3708 15.802 63.3075 15.4832C63.2442 15.1643 63.1809 14.9093 62.991 14.718C62.8644 14.5267 62.6111 14.3991 62.3579 14.3354C62.1047 14.3354 61.7248 14.3354 61.345 14.3354C60.9651 14.3354 60.5853 14.3354 60.3321 14.3991C60.0788 14.4629 59.8889 14.5904 59.699 14.7817C59.5724 14.973 59.4458 15.2281 59.3824 15.547C59.3191 15.8658 59.3191 16.2484 59.3191 16.8223V18.0977C59.3191 18.6078 59.3191 18.9904 59.3824 19.3093C59.4458 19.6281 59.5091 19.8832 59.699 20.0745C59.8256 20.2658 60.0788 20.3933 60.3321 20.4571C60.5853 20.4571 60.9651 20.4571 61.345 20.4571ZM61.345 22.3064C60.522 22.3064 59.8256 22.2426 59.3191 22.0513C58.7494 21.86 58.3695 21.6049 58.053 21.2861C57.7365 20.9672 57.4832 20.5209 57.3566 19.947C57.23 19.4368 57.1667 18.7991 57.1667 18.0339V16.6948C57.1667 15.9933 57.23 15.3556 57.3566 14.8455C57.4832 14.3354 57.7365 13.889 58.053 13.5064C58.3695 13.1875 58.8127 12.8687 59.3191 12.7412C59.8889 12.5499 60.522 12.4861 61.345 12.4861C62.168 12.4861 62.8011 12.5499 63.3708 12.7412C63.8773 12.9325 64.3204 13.1875 64.637 13.5064C64.9535 13.8252 65.2067 14.2716 65.3333 14.7817C65.46 15.2919 65.5233 15.9296 65.5233 16.6948V18.0339C65.5233 18.7354 65.46 19.373 65.3333 19.8832C65.2067 20.3933 64.9535 20.8397 64.637 21.2223C64.3204 21.5412 63.8773 21.86 63.3708 21.9875C62.8644 22.1788 62.168 22.3064 61.345 22.3064Z" fill="#005087"/>
<path d="M66.8527 12.7412V22.0514H72.9936L73.3101 20.2021H69.0052V12.7412H66.8527Z" fill="#005087"/>
<path d="M78.3114 12.7412L76.2855 16.5035L74.2597 12.7412H71.854L75.2093 18.289V22.0514H77.2985V18.289L80.5904 12.7412H78.3114Z" fill="#005087"/>
<path d="M88.4406 12.7412L86.0982 17.4601L83.6925 12.7412H81.4135V22.0514H83.4393V15.9934L85.2119 19.4369H86.9212L88.6938 15.9296V22.0514H90.7197V12.7412H88.4406Z" fill="#005087"/>
<path d="M97.3036 15.7383C97.3036 15.4832 97.3036 15.2919 97.2403 15.1006C97.177 14.9093 97.1137 14.7818 96.9871 14.718C96.8605 14.6543 96.7339 14.5267 96.5439 14.5267C96.354 14.4629 96.1008 14.463 95.8475 14.463H94.3282V17.1412H95.8475C96.1008 17.1412 96.354 17.1412 96.5439 17.0774C96.7339 17.0137 96.8605 16.9499 96.9871 16.8861C97.1137 16.8224 97.177 16.6311 97.2403 16.5035C97.3036 16.3122 97.3036 16.1209 97.3036 15.8658V15.7383ZM94.2649 18.9267V22.0514H92.1757V12.7412H95.8475C97.1137 12.7412 98 12.9963 98.5698 13.4427C99.1395 13.889 99.3928 14.5905 99.3928 15.6108V16.1209C99.3928 17.0774 99.1395 17.7789 98.5698 18.2253C98 18.6716 97.1137 18.9267 95.8475 18.9267H94.2649Z" fill="#005087"/>
<path d="M102.685 12.7412H100.532V22.0514H102.685V12.7412Z" fill="#005087"/>
<path d="M106.23 17.9702C106.23 18.4166 106.23 18.7992 106.293 19.1181C106.357 19.4369 106.483 19.6282 106.61 19.8195C106.736 20.0108 106.99 20.0746 107.243 20.1384C107.496 20.2021 107.876 20.2021 108.256 20.2021H108.699H109.205C109.395 20.2021 109.585 20.2021 109.839 20.2021C110.092 20.2021 110.345 20.2021 110.662 20.2021L110.282 21.9876C109.775 21.9876 109.332 21.9876 109.016 21.9876H108.129C107.37 21.9876 106.736 21.9239 106.167 21.7963C105.66 21.6688 105.217 21.4137 104.901 21.0949C104.584 20.776 104.331 20.3297 104.204 19.8195C104.078 19.3094 104.014 18.6717 104.014 17.8427V16.7587C104.014 15.9934 104.078 15.3558 104.267 14.8456C104.394 14.3355 104.647 13.8891 104.964 13.5702C105.28 13.2514 105.724 12.9963 106.23 12.8688C106.736 12.7413 107.433 12.6775 108.129 12.6775H108.572H109.079C109.269 12.6775 109.522 12.6775 109.712 12.6775C109.965 12.6775 110.218 12.6775 110.535 12.6775L110.155 14.463C109.839 14.463 109.522 14.463 109.142 14.463C108.762 14.463 108.446 14.463 108.129 14.463C107.686 14.463 107.37 14.463 107.116 14.5268C106.863 14.5905 106.673 14.7181 106.483 14.8456C106.357 15.0369 106.23 15.2282 106.167 15.5471C106.103 15.8659 106.103 16.2485 106.103 16.6949V17.9702H106.23Z" fill="#005087"/>
<path d="M118.258 20.4571C118.638 20.4571 119.018 20.4571 119.271 20.3933C119.525 20.3296 119.714 20.202 119.904 20.0107C120.031 19.8194 120.158 19.5643 120.221 19.2455C120.284 18.9267 120.284 18.5441 120.284 17.9701V16.6948C120.284 16.1846 120.284 15.802 120.221 15.4832C120.158 15.1643 120.094 14.9093 119.904 14.718C119.778 14.5267 119.588 14.3991 119.271 14.3354C119.018 14.2716 118.702 14.2078 118.258 14.2078C117.879 14.2078 117.499 14.2078 117.245 14.2716C116.992 14.3354 116.802 14.4629 116.612 14.6542C116.486 14.8455 116.359 15.1006 116.296 15.4194C116.233 15.7383 116.233 16.1209 116.233 16.6948V17.9701C116.233 18.4803 116.233 18.8629 116.296 19.1817C116.359 19.5006 116.422 19.7556 116.612 19.947C116.739 20.1383 116.992 20.2658 117.245 20.3296C117.499 20.4571 117.879 20.4571 118.258 20.4571ZM118.258 22.3064C117.435 22.3064 116.739 22.2426 116.233 22.0513C115.663 21.86 115.283 21.6049 114.966 21.2861C114.65 20.9672 114.397 20.5209 114.27 19.947C114.143 19.4368 114.08 18.7991 114.08 18.0339V16.6948C114.08 15.9933 114.143 15.3556 114.27 14.8455C114.397 14.3354 114.65 13.889 114.966 13.5064C115.283 13.1875 115.726 12.8687 116.233 12.7412C116.802 12.5499 117.435 12.4861 118.258 12.4861C119.081 12.4861 119.714 12.5499 120.284 12.7412C120.791 12.9325 121.234 13.1875 121.55 13.5064C121.867 13.8252 122.12 14.2716 122.247 14.7817C122.373 15.2919 122.437 15.9296 122.437 16.6948V18.0339C122.437 18.7354 122.373 19.373 122.247 19.8832C122.12 20.3933 121.867 20.8397 121.55 21.2223C121.234 21.5412 120.791 21.86 120.284 21.9875C119.778 22.1788 119.081 22.3064 118.258 22.3064Z" fill="#005087"/>
<path d="M129.211 12.7412L127.185 19.5644L125.096 12.7412H122.753L125.855 22.0514H128.388L131.426 12.7412H129.211Z" fill="#005087"/>
<path d="M134.972 14.6543L136.111 18.0977H133.832L134.972 14.6543ZM133.769 12.7412L130.413 22.0514H132.566L133.262 19.8195H136.554L137.314 22.0514H139.53L136.174 12.7412H133.769Z" fill="#005087"/>
<path d="M140.543 12.7412V22.0514H146.683L147 20.2021H142.695V12.7412H140.543Z" fill="#005087"/>
</g>
<defs>
<clipPath id="clip0">
<rect width="147" height="22" fill="white" transform="translate(0 0.306396)"/>
</clipPath>
</defs>
</svg>
