<svg width="40" height="42" viewBox="0 0 40 42" fill="none" xmlns="http://www.w3.org/2000/svg">
<path d="M25.0219 15.9541L26.4618 5.32662L23.4426 7.09403L20.168 0.299805L16.9166 7.09403L13.8975 5.32662L15.3141 15.9541L20.1215 21.3481L25.0219 15.9541Z" fill="white"/>
<path d="M7.83665 10.582L7.51151 13.6578L1.72868 11.1788L3.60984 16.7565L0.776489 17.2844L24.86 41.2938H36.0541L7.83665 10.582Z" fill="white"/>
<path d="M32.1513 10.6514L32.4996 13.7271L38.2592 11.2252L36.4013 16.8029L39.2346 17.3308L27.5761 29.3355L21.3752 22.679L32.1513 10.6514Z" fill="white"/>
<path d="M13.0616 31.9531L19.007 37.8751L15.9414 41.2952H4.44543L13.0616 31.9531Z" fill="white"/>
</svg>
