<svg width="22" height="21" viewBox="0 0 22 21" fill="none" xmlns="http://www.w3.org/2000/svg">
<path d="M7.80593 0.357178C11.9533 0.357178 15.25 3.48849 15.25 7.42789C15.25 8.03395 15.1437 8.74102 14.931 9.24607L20.7799 14.8016C21.6307 15.6097 21.6307 16.8218 20.7799 17.6299L18.5467 19.7511C17.6959 20.5592 16.4198 20.5592 15.569 19.7511L9.72012 14.1956C9.08206 14.3976 8.44399 14.4986 7.80593 14.4986C3.65851 14.4986 0.361847 11.3673 0.361847 7.42789C0.361847 3.48849 3.65851 0.357178 7.80593 0.357178ZM17.0579 18.337L19.2911 16.2158L13.9739 11.1653C13.4422 11.9733 12.5914 12.7814 11.7407 13.2865L17.0579 18.337ZM7.80593 12.4784C10.7836 12.4784 13.1231 10.2562 13.1231 7.42789C13.1231 4.5996 10.7836 2.37738 7.80593 2.37738C4.8283 2.37738 2.48873 4.5996 2.48873 7.42789C2.48873 10.2562 4.8283 12.4784 7.80593 12.4784Z" fill="#005088"/>
</svg>
