<svg width="34" height="36" viewBox="0 0 34 36" fill="none" xmlns="http://www.w3.org/2000/svg">
<g clip-path="url(#clip0)">
<path d="M28.9392 3.70776C28.9392 4.95347 27.918 5.9663 26.6021 5.9663C25.2889 5.9663 24.265 4.93382 24.265 3.70776C24.265 2.4843 25.3091 1.44922 26.6021 1.44922C27.918 1.44922 28.9392 2.46205 28.9392 3.70776Z" stroke="#212121"/>
<path d="M11.9676 17.2109L11.8532 17.2828L11.7905 17.4025L5.88747 28.6814L5.88583 28.6846C5.56112 29.316 4.76714 29.5758 4.08031 29.2433C3.4328 28.9189 3.17715 28.1538 3.50268 27.5192C3.50289 27.5187 3.5031 27.5183 3.50331 27.5179L11.3222 12.5354C11.5133 12.2037 11.7756 11.915 12.1291 11.698L12.1291 11.698L12.1338 11.6951L19.6584 6.95835C19.6589 6.95806 19.6594 6.95778 19.6598 6.95749C20.755 6.27921 22.2139 6.61106 22.9122 7.67534C23.5974 8.71968 23.2737 10.1206 22.1743 10.8025L22.172 10.804L11.9676 17.2109Z" stroke="#212121"/>
<path d="M31.8329 16.161L31.8313 16.1619L0.948267 35.1489L0.873142 35.0325L31.7362 16.0579C31.7363 16.0578 31.7364 16.0578 31.7365 16.0577C32.6167 15.5196 32.9911 14.4531 32.6726 13.5167L32.805 13.4388C33.18 14.4291 32.8059 15.5677 31.8329 16.161Z" stroke="#212121"/>
</g>
<defs>
<clipPath id="clip0">
<rect width="33.2673" height="34.8822" fill="white" transform="translate(0.175781 0.949219)"/>
</clipPath>
</defs>
</svg>
